<svg xmlns="http://www.w3.org/2000/svg" xmlns:xlink="http://www.w3.org/1999/xlink" width="1080" zoomAndPan="magnify" viewBox="0 0 810 525.000007" height="700" preserveAspectRatio="xMidYMid meet" version="1.2"><defs><clipPath id="95afaaaeaa"><path d="M 27.394531 375 L 206 375 L 206 510 L 27.394531 510 Z M 27.394531 375 "/></clipPath><clipPath id="9d36376617"><path d="M 452 255 L 555.886719 255 L 555.886719 373 L 452 373 Z M 452 255 "/></clipPath><clipPath id="f00bab9bc0"><path d="M 446 13.152344 L 551 13.152344 L 551 81 L 446 81 Z M 446 13.152344 "/></clipPath><clipPath id="fc28867285"><path d="M 588 234 L 736 234 L 736 385 L 588 385 Z M 588 234 "/></clipPath><clipPath id="de0d5f0000"><path d="M 570.328125 293.125 L 675.398438 218.710938 L 746.785156 319.507812 L 641.714844 393.921875 Z M 570.328125 293.125 "/></clipPath><clipPath id="575234bbab"><path d="M 570.328125 293.125 L 675.398438 218.710938 L 746.785156 319.507812 L 641.714844 393.921875 Z M 570.328125 293.125 "/></clipPath><clipPath id="f7c80845fd"><path d="M 570.328125 293.125 L 675.398438 218.710938 L 746.785156 319.507812 L 641.714844 393.921875 Z M 570.328125 293.125 "/></clipPath><clipPath id="c08e95fb71"><path d="M 609 52.398438 L 724.613281 52.398438 L 724.613281 178.910156 L 609 178.910156 Z M 609 52.398438 "/></clipPath></defs><g id="50af0f3ae2"><path style=" stroke:none;fill-rule:nonzero;fill:#000000;fill-opacity:1;" d="M 299.910156 187.417969 C 298.910156 185.304688 297.9375 183.167969 296.90625 181.070312 C 294.667969 176.515625 292.402344 171.996094 290.246094 167.410156 C 289.167969 165.109375 288.101562 162.808594 286.984375 160.53125 C 285.871094 158.253906 284.769531 155.261719 282.625 153.785156 C 282.578125 153.75 282.519531 153.738281 282.472656 153.714844 C 282.507812 152.175781 282.507812 150.628906 282.449219 149.089844 C 282.296875 145.054688 281.757812 141.015625 281.015625 137.050781 C 280.300781 133.261719 279.351562 129.527344 277.992188 125.914062 C 277.289062 124.058594 276.503906 122.21875 275.585938 120.457031 C 274.648438 118.625 273.699219 116.726562 272.117188 115.363281 C 271.132812 114.519531 269.289062 115.011719 269.359375 116.503906 C 269.453125 118.425781 270.113281 120.140625 270.675781 121.972656 C 271.214844 123.71875 271.71875 125.480469 272.234375 127.238281 C 273.277344 130.855469 274.226562 134.503906 274.90625 138.199219 C 275.550781 141.722656 275.902344 145.265625 276.082031 148.84375 C 276.175781 150.769531 276.210938 152.691406 276.199219 154.617188 C 276.199219 155.507812 276.257812 156.355469 276.339844 157.246094 C 276.445312 158.3125 276.75 159.347656 276.878906 160.390625 C 277.148438 162.597656 280.089844 163.300781 280.933594 161.09375 C 281.144531 161.554688 281.34375 161.988281 281.519531 162.398438 C 282.449219 164.558594 283.386719 166.703125 284.335938 168.851562 C 286.128906 172.890625 287.902344 176.925781 289.589844 181.011719 C 290.445312 183.085938 291.3125 185.152344 292.226562 187.195312 C 293.09375 189.152344 294.386719 191.242188 294.867188 193.332031 C 294.890625 193.460938 294.925781 193.519531 294.949219 193.542969 C 294.515625 193.835938 293.328125 194.011719 292.917969 194.105469 C 290.949219 194.574219 288.957031 194.761719 286.925781 194.714844 C 284.980469 194.667969 283 194.164062 281.0625 194.363281 C 280.851562 194.386719 280.652344 194.421875 280.464844 194.46875 C 280.277344 192.851562 277.570312 192.101562 277.300781 194.046875 C 276.433594 200.253906 275.128906 206.441406 272.867188 212.296875 C 270.652344 218.011719 267.332031 223.492188 263.367188 228.171875 C 255.171875 237.855469 243.890625 244.191406 231.4375 246.46875 C 228.070312 247.078125 224.613281 247.335938 221.164062 247.289062 C 219.359375 247.265625 217.5625 247.136719 215.769531 247.03125 C 213.964844 246.914062 211.546875 247.089844 210.058594 248.144531 C 209.167969 248.769531 208.628906 250.023438 209.308594 251.03125 C 211.429688 254.203125 216.027344 254.460938 219.535156 254.554688 C 223.15625 254.648438 226.757812 254.367188 230.335938 253.835938 C 237.21875 252.828125 243.914062 250.574219 250.058594 247.3125 C 262.464844 240.707031 271.835938 229.804688 276.996094 216.777344 C 278.988281 211.730469 280.324219 206.359375 280.628906 200.925781 C 282.261719 201.617188 284.136719 201.78125 285.871094 201.875 C 288.253906 202.003906 290.644531 201.78125 292.988281 201.371094 C 297.246094 200.621094 302.136719 198.707031 302.03125 193.578125 C 301.984375 191.382812 300.835938 189.367188 299.921875 187.429688 Z M 299.910156 187.417969 "/><path style=" stroke:none;fill-rule:nonzero;fill:#000000;fill-opacity:1;" d="M 223.980469 281.003906 C 223.734375 280.054688 223.535156 279.007812 223.050781 278.140625 C 222.535156 277.226562 221.726562 276.417969 221.023438 275.640625 C 219.769531 274.292969 218.410156 273.023438 217.035156 271.804688 C 214.175781 269.246094 211.148438 266.863281 207.984375 264.703125 C 201.6875 260.410156 194.804688 257.113281 187.601562 254.648438 C 179.816406 251.984375 171.597656 250.46875 163.339844 250.140625 C 164.101562 248.324219 164.769531 246.480469 165.300781 244.566406 C 165.863281 242.511719 168.582031 231.496094 163.960938 232.480469 C 162.039062 232.890625 161.617188 236.082031 161.101562 237.679688 C 160.503906 239.542969 159.941406 241.433594 159.28125 243.289062 C 158.964844 244.191406 158.613281 245.070312 158.285156 245.976562 C 157.96875 246.832031 157.652344 247.59375 157.382812 248.191406 C 157.089844 248.839844 156.796875 249.484375 156.515625 250.140625 C 151.929688 250.316406 147.367188 250.84375 142.890625 251.75 C 127.328125 254.894531 113.222656 263.074219 101.484375 273.601562 C 89.039062 284.757812 79.238281 298.664062 71.648438 313.488281 C 63.113281 330.175781 56.78125 348 51.796875 366.035156 C 51.175781 368.300781 50.648438 370.449219 50.4375 372.796875 C 50.285156 374.496094 52.734375 374.96875 53.519531 373.628906 C 55.820312 369.734375 57.179688 365.226562 58.691406 360.980469 C 60.191406 356.753906 61.742188 352.542969 63.277344 348.328125 C 66.347656 339.925781 69.609375 331.582031 73.410156 323.472656 C 80.339844 308.699219 88.980469 294.640625 100.390625 282.90625 C 110.898438 272.109375 123.738281 263.308594 138.28125 259.035156 C 144.765625 257.136719 151.414062 256.207031 158.074219 256.148438 C 165.5 256.089844 172.921875 257.113281 180.15625 259.117188 C 193.816406 262.910156 206.121094 270.277344 215.886719 280.464844 C 216.519531 281.132812 217.140625 281.859375 217.859375 282.425781 C 218.621094 283.011719 219.535156 283.339844 220.402344 283.738281 C 222.265625 284.605469 224.519531 283.175781 223.96875 281.003906 Z M 223.980469 281.003906 "/><path style=" stroke:none;fill-rule:nonzero;fill:#000000;fill-opacity:1;" d="M 554.585938 123.367188 C 554.5625 121.324219 554.515625 119.273438 554.375 117.230469 C 554.234375 115.199219 554.105469 113.015625 553.589844 111.046875 C 553.203125 109.578125 551.714844 109.097656 550.519531 109.519531 C 549.96875 109.097656 549.261719 108.839844 548.382812 108.839844 C 522.597656 108.816406 496.808594 108.863281 471.011719 108.980469 C 467.410156 108.992188 463.8125 109.039062 460.210938 109.144531 C 458.453125 109.203125 456.707031 109.332031 454.957031 109.460938 C 452.988281 109.613281 451.3125 109.871094 449.773438 111.175781 C 449.210938 111.644531 449.199219 112.652344 449.667969 113.214844 C 449.46875 114.015625 449.28125 114.789062 449.175781 115.644531 C 449.023438 116.820312 448.90625 117.980469 448.871094 119.15625 C 448.800781 121.300781 448.753906 123.4375 448.695312 125.585938 C 448.566406 130.160156 448.53125 134.75 448.496094 139.328125 C 448.4375 148.386719 447.710938 157.457031 447.921875 166.515625 C 447.980469 168.78125 449.726562 169.910156 451.464844 169.875 C 435.890625 180.855469 420.75 192.476562 406.199219 204.785156 C 401.390625 208.855469 396.652344 213 391.972656 217.210938 C 387.765625 221.003906 383.273438 224.78125 379.496094 229.054688 C 379.203125 228.949219 378.910156 228.832031 378.605469 228.726562 C 377.1875 228.265625 375.945312 227.621094 374.441406 228.078125 C 373.914062 227.773438 373.257812 227.65625 372.496094 227.878906 C 371.371094 228.207031 370.527344 228.582031 369.707031 229.441406 C 369.035156 230.144531 368.4375 230.929688 367.804688 231.671875 C 366.410156 233.300781 365.015625 234.933594 363.621094 236.5625 C 361.085938 239.53125 358.542969 242.5 356.007812 245.457031 C 350.742188 251.621094 345.476562 257.769531 340.214844 263.929688 C 329.8125 276.085938 319.339844 288.199219 309.019531 300.425781 C 306.125 303.851562 303.191406 307.265625 300.332031 310.71875 C 298.113281 313.382812 295.78125 316.140625 294.023438 319.167969 C 293.328125 318.699219 292.589844 318.261719 291.828125 317.816406 C 289.472656 316.445312 287.113281 315.070312 284.769531 313.699219 C 280.148438 311 275.515625 308.3125 270.898438 305.613281 C 261.492188 300.132812 252.097656 294.546875 242.460938 289.476562 C 239.785156 288.070312 237.089844 286.683594 234.332031 285.441406 C 231.636719 284.21875 228.796875 282.613281 225.808594 282.355469 C 224.730469 282.261719 223.933594 283.691406 224.53125 284.570312 C 226.007812 286.730469 228.351562 288.234375 230.453125 289.757812 C 232.65625 291.355469 234.917969 292.914062 237.207031 294.394531 C 241.699219 297.316406 246.28125 300.074219 250.890625 302.796875 C 260.285156 308.335938 269.6875 313.816406 279.117188 319.296875 C 281.71875 320.808594 284.335938 322.324219 286.9375 323.847656 C 289.847656 325.539062 292.695312 327.664062 296.109375 326.066406 C 296.789062 325.75 297.316406 324.800781 297.257812 324.058594 C 297.234375 323.707031 297.164062 323.390625 297.09375 323.085938 C 299.804688 321.066406 302.078125 318.4375 304.328125 315.953125 C 306.957031 313.066406 309.453125 310.0625 312 307.113281 C 317.242188 301.070312 322.421875 294.96875 327.617188 288.890625 C 338.019531 276.734375 348.421875 264.5625 358.824219 252.40625 C 361.742188 248.992188 364.664062 245.589844 367.570312 242.171875 L 371.757812 237.28125 C 372.964844 235.871094 374.476562 234.5 375.277344 232.832031 C 375.3125 232.855469 375.335938 232.878906 375.371094 232.914062 C 376.390625 233.6875 377.339844 234.523438 378.394531 235.25 C 380.46875 236.691406 382.640625 238.019531 384.773438 239.367188 C 389.125 242.125 393.441406 244.929688 397.777344 247.710938 C 406.375 253.214844 414.757812 259.046875 422.96875 265.117188 C 425.21875 266.78125 427.460938 268.460938 429.675781 270.171875 C 431.820312 271.828125 434.167969 274.398438 437.003906 274.339844 C 433.6875 278.691406 430.859375 283.398438 427.90625 288.011719 C 424.28125 293.667969 420.667969 299.3125 417.046875 304.96875 C 409.917969 316.117188 402.773438 327.253906 395.609375 338.367188 C 388.726562 349.054688 381.972656 359.839844 374.980469 370.460938 C 369 379.542969 362.632812 388.320312 354.695312 395.832031 C 346.875 403.226562 337.527344 408.636719 327.277344 411.851562 C 316.523438 415.21875 305.644531 416.402344 294.410156 416.414062 C 272.667969 416.4375 251.21875 412.179688 230.816406 404.328125 C 210.902344 396.675781 192.128906 385.375 175.59375 371.714844 C 173.484375 369.96875 171.183594 368.453125 169.039062 366.730469 C 166.953125 365.050781 164.3125 367.609375 166.085938 369.6875 C 167.878906 371.8125 169.613281 374.085938 171.632812 376.011719 C 173.648438 377.949219 175.675781 379.859375 177.8125 381.667969 C 182.183594 385.363281 186.734375 388.851562 191.4375 392.113281 C 200.503906 398.414062 210.175781 403.835938 220.285156 408.269531 C 221.433594 408.777344 222.582031 409.257812 223.746094 409.738281 C 222.617188 412.4375 222.289062 415.628906 221.808594 418.398438 C 221.128906 422.339844 220.519531 426.285156 219.910156 430.238281 C 218.691406 438.242188 217.492188 446.257812 216.308594 454.273438 C 214.117188 469.152344 211.957031 484.03125 209.800781 498.914062 C 209.917969 498.855469 210.023438 498.796875 210.140625 498.738281 C 210.140625 498.785156 210.140625 498.820312 210.152344 498.867188 C 210.269531 499.148438 210.386719 499.429688 210.503906 499.699219 C 210.726562 500.109375 211.019531 500.4375 211.40625 500.683594 C 211.570312 500.835938 211.757812 500.964844 211.957031 501.074219 C 211.992188 501.097656 212.015625 501.132812 212.054688 501.144531 C 212.945312 501.660156 214 501.789062 214.996094 501.519531 C 215.054688 501.507812 215.113281 501.484375 215.160156 501.460938 C 215.535156 501.320312 216.015625 501.15625 216.378906 500.917969 C 216.402344 500.894531 216.4375 500.882812 216.460938 500.859375 C 216.730469 500.660156 217.011719 500.4375 217.269531 500.238281 C 217.316406 500.191406 217.375 500.15625 217.421875 500.109375 C 217.726562 499.792969 218.011719 499.441406 218.222656 499.066406 C 218.503906 498.632812 218.65625 498.152344 218.679688 497.644531 C 218.796875 497.140625 218.773438 496.625 218.609375 496.121094 C 218.503906 495.675781 218.304688 495.296875 218.023438 494.957031 C 218.175781 494.921875 218.328125 494.863281 218.480469 494.839844 C 219.042969 490.921875 219.617188 487.015625 220.179688 483.09375 C 222.5 467.039062 224.789062 450.988281 226.992188 434.921875 C 227.625 430.320312 228.28125 425.734375 228.820312 421.132812 C 229.089844 418.820312 229.359375 416.496094 229.5625 414.175781 C 229.621094 413.503906 229.667969 412.8125 229.691406 412.109375 C 247.667969 418.902344 266.582031 423.035156 285.8125 424.066406 C 308.621094 425.300781 333.210938 422.117188 352.058594 408.1875 C 361.425781 401.265625 368.90625 392.453125 375.664062 383.03125 C 382.78125 373.089844 389.160156 362.597656 395.738281 352.308594 C 410.304688 329.527344 424.832031 306.714844 439.398438 283.9375 C 441.203125 281.109375 442.820312 278.316406 444.214844 275.277344 C 444.875 273.847656 444.742188 272.203125 443.40625 271.207031 C 442.597656 270.59375 441.425781 270.382812 440.441406 270.703125 C 440.335938 268.460938 438.574219 266.96875 436.839844 265.65625 C 438.386719 264.996094 439.890625 264.09375 441.238281 263.367188 C 444.226562 261.757812 447.171875 260.070312 450.019531 258.203125 C 455.425781 254.660156 460.5625 250.527344 464.714844 245.542969 C 472.675781 235.976562 477.296875 223.585938 474.097656 211.167969 C 472.769531 206.042969 469.96875 200.84375 465.628906 197.746094 C 466.554688 196.441406 467.410156 195.082031 468.269531 193.730469 C 469.734375 191.394531 471.128906 189.011719 472.429688 186.585938 C 473.730469 184.15625 474.953125 181.679688 476.089844 179.15625 C 477.132812 176.855469 478.199219 174.507812 478.75 172.03125 C 479.792969 167.304688 478.902344 161.121094 473.425781 159.628906 C 468.421875 158.265625 463.636719 161.367188 459.71875 164.042969 C 458.019531 165.203125 456.328125 166.375 454.640625 167.5625 C 454.746094 167.222656 454.828125 166.871094 454.839844 166.457031 C 455.050781 157.398438 454.335938 148.328125 454.265625 139.269531 C 454.230469 134.785156 454.207031 130.304688 454.078125 125.820312 C 454.019531 123.578125 453.960938 121.335938 453.890625 119.097656 C 453.855469 117.921875 453.738281 116.761719 453.585938 115.585938 C 453.550781 115.363281 453.503906 115.152344 453.46875 114.941406 C 455.296875 115.28125 457.257812 115.257812 459.003906 115.351562 C 462.109375 115.503906 465.230469 115.503906 468.351562 115.5625 C 474.777344 115.679688 481.203125 115.667969 487.617188 115.703125 C 500.5625 115.785156 513.496094 115.914062 526.445312 115.949219 C 533.667969 115.972656 540.878906 115.984375 548.101562 116.007812 C 547.914062 117.875 547.84375 119.753906 547.738281 121.558594 C 547.527344 125.070312 547.433594 128.578125 547.328125 132.085938 C 547.128906 139.105469 547.023438 146.121094 546.90625 153.140625 C 546.660156 167.175781 546.425781 181.210938 546.191406 195.246094 C 546.132812 199.140625 546.0625 203.035156 546.003906 206.945312 C 545.933594 211.015625 545.675781 215.148438 545.875 219.230469 C 545.886719 219.5 545.933594 219.769531 545.992188 220.027344 C 535.613281 219.945312 525.222656 220.0625 514.847656 220.136719 C 508.996094 220.171875 503.15625 220.359375 497.304688 220.488281 C 494.382812 220.558594 491.453125 220.582031 488.53125 220.792969 C 487.113281 220.898438 485.742188 221.238281 484.34375 221.507812 C 482.867188 221.800781 481.367188 222.023438 479.960938 222.5625 C 478.574219 223.09375 478.574219 224.863281 479.960938 225.378906 C 481.367188 225.921875 482.867188 226.144531 484.34375 226.4375 C 485.742188 226.707031 487.125 227.046875 488.53125 227.152344 C 491.453125 227.375 494.382812 227.386719 497.304688 227.457031 C 503.15625 227.597656 508.996094 227.773438 514.847656 227.808594 C 526.539062 227.890625 538.242188 228.03125 549.933594 227.878906 C 553.765625 227.832031 554.679688 223.375 552.6875 221.203125 C 553.050781 220.617188 553.273438 219.933594 553.332031 219.207031 C 553.613281 215.722656 553.507812 212.179688 553.554688 208.679688 C 553.601562 205.171875 553.660156 201.664062 553.707031 198.15625 C 553.8125 191.136719 553.917969 184.121094 554.023438 177.101562 C 554.234375 163.066406 554.539062 149.03125 554.574219 134.996094 C 554.574219 131.101562 554.574219 127.203125 554.539062 123.296875 Z M 453.632812 174.449219 C 457.761719 171.597656 461.875 168.441406 466.296875 166.070312 C 467.574219 165.390625 469.828125 164.148438 471.210938 165.050781 C 472.59375 165.941406 472.59375 166.785156 472.511719 168.359375 C 472.417969 170.121094 471.503906 172.347656 470.789062 173.957031 C 469.59375 176.644531 468.328125 179.285156 466.941406 181.878906 C 465.605469 184.390625 464.175781 186.855469 462.664062 189.269531 C 461.054688 191.828125 459.167969 194.234375 457.726562 196.875 C 456.34375 199.410156 458.582031 202.144531 460.9375 202.039062 C 461.898438 203.34375 462.839844 204.621094 463.671875 205.945312 C 465.007812 208.082031 465.652344 209.714844 466.355469 212.050781 C 467.738281 216.707031 467.785156 221.367188 466.636719 225.957031 C 463.988281 236.445312 456.164062 244.789062 447.242188 250.855469 C 444.355469 252.816406 441.367188 254.589844 438.304688 256.253906 C 436.78125 257.089844 435.199219 257.839844 433.699219 258.730469 C 432.605469 259.375 431.480469 260.046875 430.671875 260.972656 C 430.109375 260.550781 429.558594 260.117188 428.996094 259.695312 C 424.878906 256.605469 420.703125 253.589844 416.460938 250.679688 C 408.074219 244.917969 399.527344 239.203125 390.53125 234.441406 C 388.421875 233.324219 386.308594 232.152344 384.164062 231.09375 C 387.015625 228.644531 389.710938 226.003906 392.480469 223.480469 C 396.324219 219.957031 400.21875 216.484375 404.160156 213.058594 C 412.039062 206.21875 420.082031 199.574219 428.304688 193.144531 C 436.570312 186.679688 445.003906 180.421875 453.632812 174.460938 Z M 453.632812 174.449219 "/><g clip-rule="nonzero" clip-path="url(#95afaaaeaa)"><path style=" stroke:none;fill-rule:nonzero;fill:#000000;fill-opacity:1;" d="M 203.457031 494.628906 C 200.351562 494.652344 197.371094 494.488281 194.273438 495.027344 C 191.378906 495.546875 188.515625 496.414062 185.644531 497.023438 C 179.945312 498.246094 174.058594 499.207031 168.851562 499.804688 C 157.183594 501.132812 145.410156 501.367188 133.695312 500.542969 C 127.738281 500.132812 122.484375 499.523438 116.984375 498.621094 C 111.144531 497.667969 105.351562 496.449219 99.628906 494.980469 C 93.90625 493.503906 88.253906 491.765625 82.683594 489.78125 C 77.007812 487.777344 72.140625 485.792969 66.84375 483.328125 C 60.921875 480.570312 55.117188 477.554688 49.5 474.234375 C 44.738281 471.429688 40.199219 468.097656 35.296875 465.527344 C 35.589844 464.28125 35.730469 462.945312 35.882812 461.726562 C 36.269531 458.707031 36.632812 455.691406 37.078125 452.6875 C 38.007812 446.410156 39.109375 440.15625 40.386719 433.949219 C 42.894531 421.695312 46.003906 409.574219 49.6875 397.617188 C 51.761719 390.878906 54.351562 383.921875 54.8125 376.855469 C 54.90625 375.414062 52.757812 374.414062 51.796875 375.613281 C 47.714844 380.683594 45.511719 386.9375 43.25 392.980469 C 41.03125 398.917969 39.238281 405.042969 37.5625 411.144531 C 34.160156 423.46875 31.476562 435.976562 29.515625 448.617188 C 28.953125 452.242188 28.449219 455.890625 27.992188 459.53125 C 27.757812 461.359375 27.570312 463.167969 27.582031 465.011719 C 27.582031 465.890625 27.851562 466.652344 27.992188 467.476562 C 28.203125 468.671875 28.191406 469.574219 28.90625 470.609375 C 29.667969 471.699219 31.027344 472.109375 32.144531 471.476562 C 35.554688 474.691406 39.613281 477.320312 43.519531 479.820312 C 48.488281 483 53.601562 485.96875 58.878906 488.632812 C 69.75 494.101562 81.148438 498.585938 92.851562 501.917969 C 116.070312 508.546875 140.601562 510.976562 164.664062 508.78125 C 171.539062 508.160156 178.410156 507.1875 185.175781 505.835938 C 188.527344 505.167969 191.871094 504.429688 195.179688 503.535156 C 198.742188 502.585938 201.546875 500.566406 204.523438 498.515625 C 206.167969 497.375 205.671875 494.570312 203.457031 494.582031 Z M 203.457031 494.628906 "/></g><path style=" stroke:none;fill-rule:nonzero;fill:#000000;fill-opacity:1;" d="M 296.707031 335.230469 C 296.261719 333.027344 293.152344 332.308594 291.675781 333.90625 C 290.199219 335.503906 289.625 337.835938 289.039062 339.914062 C 288.523438 341.734375 288.078125 343.5625 287.703125 345.429688 C 287.324219 347.285156 286.984375 349.148438 286.726562 351.015625 C 286.398438 353.339844 285.90625 355.734375 286.257812 358.058594 C 286.492188 359.640625 288.441406 360.957031 289.976562 360.886719 C 291.746094 360.804688 293.117188 359.722656 293.695312 358.058594 C 294.316406 356.238281 294.222656 353.972656 294.457031 352.058594 C 294.527344 351.566406 294.539062 351.460938 294.492188 351.753906 C 294.539062 351.402344 294.585938 351.0625 294.632812 350.710938 C 294.632812 350.769531 294.714844 350.089844 294.738281 349.890625 C 294.867188 348.925781 295.019531 347.976562 295.171875 347.027344 C 295.476562 345.21875 295.839844 343.175781 296.121094 341.640625 C 296.519531 339.503906 297.152344 337.390625 296.71875 335.242188 Z M 296.707031 335.230469 "/><path style=" stroke:none;fill-rule:nonzero;fill:#000000;fill-opacity:1;" d="M 312.09375 343.421875 C 311.613281 342.460938 310.957031 341.617188 310.402344 340.6875 C 309.734375 339.585938 309.265625 338.285156 308.410156 337.332031 C 308.585938 337.566406 308.773438 337.800781 308.949219 338.035156 C 308.761719 337.695312 308.585938 337.355469 308.421875 337.003906 C 308.222656 336.582031 307.964844 336.230469 307.660156 335.925781 C 307.378906 335.492188 307.0625 335.113281 306.628906 334.808594 C 306.347656 334.550781 306.042969 334.339844 305.679688 334.234375 C 305.46875 334.082031 305.222656 333.976562 304.914062 333.976562 C 304.515625 333.976562 304.011719 334.199219 303.800781 334.5625 C 303.425781 334.820312 303.144531 335.183594 302.96875 335.609375 C 302.746094 335.960938 302.570312 336.3125 302.5 336.804688 C 302.5 336.886719 302.5 336.957031 302.476562 337.039062 C 302.335938 337.390625 302.242188 337.753906 302.253906 338.167969 C 302.265625 338.472656 302.324219 338.789062 302.371094 339.09375 C 302.40625 339.386719 302.464844 339.667969 302.5 339.960938 C 302.511719 340.722656 302.78125 341.453125 303.039062 342.15625 C 303.332031 342.929688 303.636719 343.691406 304 344.433594 C 304.597656 345.675781 305.351562 346.898438 306.382812 347.824219 C 307.742188 349.03125 309.664062 349.253906 311.144531 348.105469 C 312.621094 346.96875 312.902344 345.054688 312.082031 343.421875 Z M 312.09375 343.421875 "/><path style=" stroke:none;fill-rule:nonzero;fill:#000000;fill-opacity:1;" d="M 277.488281 165.050781 C 277.242188 163.769531 276.691406 162.46875 275.304688 162.09375 C 273.664062 161.648438 272.585938 163.054688 271.753906 164.171875 C 269.957031 166.585938 269.558594 169.863281 268.585938 172.667969 C 267.742188 175.105469 266.558594 177.359375 265.046875 179.578125 C 264.730469 180.035156 264.859375 179.871094 264.320312 180.503906 C 263.929688 180.964844 263.53125 181.398438 263.109375 181.820312 C 262.699219 182.242188 262.265625 182.652344 261.808594 183.039062 C 261.644531 183.179688 261.46875 183.332031 261.304688 183.472656 C 261.035156 183.699219 261.398438 183.4375 260.917969 183.769531 C 259.945312 184.449219 258.9375 185.046875 257.867188 185.5625 C 257.46875 185.75 257.445312 185.75 256.789062 185.960938 C 256.085938 186.195312 255.359375 186.359375 254.632812 186.503906 C 252.957031 186.832031 250.667969 186.609375 248.675781 185.925781 C 247.070312 185.375 245.285156 184.039062 244.207031 182.558594 C 242.695312 180.492188 241.851562 178.394531 241.078125 176.070312 C 239.984375 172.855469 239.128906 169.507812 238.414062 166.199219 C 238.074219 164.59375 237.734375 162.972656 237.453125 161.367188 C 237.300781 160.484375 237.21875 159.558594 236.996094 158.691406 C 236.914062 158.382812 236.820312 158.089844 236.714844 157.785156 C 236.761719 156.425781 236.046875 155.074219 234.378906 154.6875 C 231.144531 153.9375 227.601562 153.949219 224.296875 153.644531 C 220.941406 153.339844 217.585938 152.988281 214.222656 152.75 C 210.960938 152.527344 207.703125 152.257812 204.429688 152.152344 C 201.851562 152.070312 199.175781 151.871094 196.574219 152.070312 C 196.539062 149.347656 194.132812 146.472656 192.410156 144.714844 C 189.960938 142.214844 186.828125 140.324219 183.488281 139.292969 C 176.378906 137.109375 168.488281 139.363281 163.117188 144.359375 C 151.601562 155.085938 155.566406 174.964844 167.117188 183.992188 C 170.515625 186.644531 174.480469 188.566406 178.703125 189.472656 C 181.128906 189.988281 183.488281 190.28125 185.9375 189.847656 C 187.882812 189.507812 189.738281 188.636719 191.695312 187.839844 C 192.808594 187.382812 193.617188 186.464844 193.429688 185.175781 C 193.265625 184.074219 192.269531 182.96875 191.050781 183.074219 C 189.597656 183.203125 188.257812 182.933594 186.828125 182.710938 C 185.386719 182.488281 183.535156 182.300781 182.148438 182.113281 C 179.441406 181.738281 176.660156 180.785156 174.246094 179.378906 C 169.753906 176.75 166.179688 172.335938 164.628906 167.316406 C 163.023438 162.117188 163.304688 155.757812 166.90625 151.144531 C 169.871094 147.355469 174.9375 145.347656 179.816406 145.816406 C 182.160156 146.039062 184.976562 147.191406 187.109375 148.820312 C 188.351562 149.78125 189.421875 150.957031 190.359375 152.199219 C 191.355469 153.515625 192.210938 154.722656 193.886719 155.167969 C 194.144531 155.238281 194.402344 155.226562 194.664062 155.179688 C 197.59375 156.355469 200.9375 156.730469 204.03125 157.304688 C 207.246094 157.890625 210.480469 158.300781 213.707031 158.773438 C 216.941406 159.242188 220.191406 159.605469 223.4375 160.003906 C 226.03125 160.320312 228.75 160.871094 231.402344 161.070312 C 231.296875 162.632812 231.238281 164.230469 231.34375 165.777344 C 231.578125 169.15625 232.035156 172.480469 232.902344 175.753906 C 234.414062 181.46875 236.65625 187.359375 241.488281 191.066406 C 246.164062 194.667969 252.472656 195.609375 258.136719 194.152344 C 263.847656 192.6875 268.539062 188.824219 271.953125 184.132812 C 273.886719 181.46875 275.292969 178.453125 276.398438 175.355469 C 277.546875 172.113281 278.578125 168.382812 277.488281 165.050781 Z M 277.488281 165.050781 "/><path style=" stroke:none;fill-rule:nonzero;fill:#000000;fill-opacity:1;" d="M 263.355469 160.015625 C 263.308594 159.429688 263.226562 158.84375 263.085938 158.265625 C 262.992188 157.890625 262.839844 157.550781 262.675781 157.1875 C 262.441406 156.648438 261.949219 156.25 261.480469 155.910156 C 260.789062 155.414062 259.792969 155.460938 259.054688 155.769531 C 258.3125 156.085938 257.65625 156.71875 257.46875 157.539062 C 257.445312 157.65625 257.433594 157.761719 257.421875 157.867188 C 257.375 157.902344 257.328125 157.9375 257.28125 157.972656 C 256.929688 158.265625 256.660156 158.65625 256.402344 159.03125 C 255.957031 159.699219 255.652344 160.53125 255.476562 161.320312 C 255.089844 162.972656 255.136719 164.699219 255.699219 166.304688 C 256.027344 167.234375 256.648438 167.972656 257.632812 168.242188 C 258.644531 168.523438 259.558594 168.183594 260.320312 167.527344 C 261.703125 166.328125 262.734375 164.570312 263.121094 162.785156 C 263.308594 161.894531 263.425781 160.941406 263.34375 160.015625 Z M 263.355469 160.015625 "/><path style=" stroke:none;fill-rule:nonzero;fill:#000000;fill-opacity:1;" d="M 255.335938 212.449219 C 254.433594 212.777344 253.8125 213.140625 253.109375 213.773438 C 252.933594 213.9375 252.757812 214.101562 252.578125 214.253906 C 252.296875 214.5 252.414062 214.40625 252.238281 214.535156 C 251.476562 215.113281 250.375 215.734375 249.636719 216.039062 C 247.855469 216.765625 245.753906 217.070312 243.890625 216.789062 C 242.085938 216.519531 240.417969 215.769531 238.683594 214.738281 C 237.875 214.253906 237.21875 213.738281 236.503906 213.128906 C 235.613281 212.367188 234.753906 211.449219 233.546875 211.285156 C 232.703125 211.167969 232.117188 211.484375 231.789062 212.285156 C 230.757812 214.75 233.488281 217.777344 235.191406 219.265625 C 237.335938 221.144531 240.019531 222.386719 242.835938 222.820312 C 245.742188 223.28125 248.757812 223.070312 251.523438 222.011719 C 254.28125 220.96875 258.089844 219.089844 258.9375 216.015625 C 259.488281 214.007812 257.492188 211.636719 255.347656 212.425781 Z M 255.335938 212.449219 "/><g clip-rule="nonzero" clip-path="url(#9d36376617)"><path style=" stroke:none;fill-rule:nonzero;fill:#000000;fill-opacity:1;" d="M 554.984375 354.476562 L 554.984375 323.519531 C 554.984375 309.695312 555.019531 295.871094 554.855469 282.050781 C 554.808594 278.152344 554.679688 274.257812 554.445312 270.359375 C 554.328125 268.414062 554.175781 266.546875 553.847656 264.621094 C 553.519531 262.734375 553.367188 260.914062 551.996094 259.46875 C 551.703125 259.164062 551.28125 259.058594 550.871094 259.105469 C 550.566406 257.59375 549.394531 256.265625 547.339844 256.160156 C 541.488281 255.855469 535.625 255.984375 529.773438 255.996094 C 523.816406 256.007812 517.859375 255.984375 511.914062 256.03125 C 506.050781 256.078125 500.199219 256.464844 494.347656 256.558594 C 488.390625 256.652344 482.433594 256.75 476.488281 256.84375 C 473.261719 256.890625 470.039062 256.949219 466.824219 257.066406 C 463.683594 257.171875 459.941406 256.832031 457.234375 258.648438 C 456.695312 257.839844 455.167969 257.96875 454.945312 259.035156 C 453.515625 265.960938 453.304688 273.058594 453.09375 280.113281 C 452.882812 287.222656 452.660156 294.324219 452.554688 301.433594 C 452.34375 315.648438 452.261719 329.871094 452.261719 344.082031 C 452.261719 352.058594 452.027344 360.0625 452.402344 368.03125 C 452.566406 371.585938 456.402344 372.527344 458.535156 370.882812 C 458.910156 370.976562 459.296875 371.046875 459.695312 371.105469 C 461.324219 371.328125 462.980469 371.550781 464.621094 371.609375 C 467.632812 371.714844 470.648438 371.796875 473.660156 371.847656 C 479.785156 371.929688 485.917969 371.941406 492.039062 371.953125 C 504.09375 371.964844 516.160156 371.988281 528.214844 372 C 531.613281 372 535.015625 372 538.429688 371.988281 C 541.875 371.988281 545.511719 372.304688 548.933594 371.847656 C 550.964844 371.574219 552.734375 370.296875 552.734375 368.042969 C 552.734375 367.667969 552.675781 367.328125 552.582031 367.011719 C 553.226562 366.730469 553.777344 366.261719 554.082031 365.601562 C 555.632812 362.28125 555.007812 358.082031 555.007812 354.476562 Z M 539.871094 364.113281 C 536.855469 364.113281 533.84375 364.113281 530.828125 364.101562 C 524.707031 364.101562 518.574219 364.101562 512.453125 364.113281 C 500.398438 364.125 488.332031 364.042969 476.277344 364.207031 C 472.875 364.253906 469.476562 364.3125 466.0625 364.429688 C 464.304688 364.488281 462.570312 364.617188 460.808594 364.828125 C 460.527344 364.863281 460.269531 364.910156 460 364.957031 C 460.164062 358.890625 460.046875 352.800781 460.046875 346.734375 C 460.046875 339.621094 460 332.519531 459.953125 325.410156 C 459.859375 311.1875 459.730469 296.976562 459.296875 282.765625 C 459.085938 275.6875 458.980469 268.542969 457.808594 261.535156 C 460.070312 262.734375 462.816406 262.617188 465.324219 262.699219 C 468.257812 262.804688 471.175781 262.875 474.109375 262.933594 C 480.066406 263.0625 486.023438 263.132812 491.96875 263.226562 C 497.832031 263.320312 503.683594 263.578125 509.535156 263.742188 C 515.480469 263.90625 521.449219 263.8125 527.394531 263.824219 C 534.03125 263.835938 540.679688 264 547.304688 263.671875 C 547.703125 263.648438 548.054688 263.566406 548.382812 263.472656 C 548.359375 263.589844 548.347656 263.695312 548.324219 263.8125 C 548.007812 265.621094 547.703125 267.390625 547.632812 269.222656 C 547.480469 272.625 547.246094 276.027344 547.199219 279.445312 C 547.117188 286.355469 547.082031 293.269531 547.058594 300.179688 C 547.023438 314.003906 547.035156 327.828125 547.035156 341.652344 L 547.035156 361.800781 C 547.035156 362.691406 547.164062 363.417969 547.375 364.136719 C 544.878906 363.972656 542.308594 364.136719 539.835938 364.136719 Z M 539.871094 364.113281 "/></g><path style=" stroke:none;fill-rule:nonzero;fill:#000000;fill-opacity:1;" d="M 526.1875 298.429688 C 524.460938 299.476562 523.042969 301.117188 521.589844 302.503906 C 520.191406 303.839844 518.785156 305.179688 517.390625 306.515625 C 514.660156 309.132812 511.9375 311.738281 509.207031 314.355469 C 506.472656 316.972656 503.765625 319.589844 501.113281 322.277344 C 499.753906 323.660156 498.429688 325.070312 497.105469 326.476562 C 496.996094 326.59375 496.878906 326.710938 496.773438 326.828125 C 496.105469 325.960938 495.425781 325.105469 494.746094 324.25 C 493.515625 322.710938 492.296875 321.171875 491.0625 319.648438 C 489.878906 318.15625 488.695312 316.65625 487.476562 315.210938 C 486.84375 314.460938 486.117188 313.710938 485.410156 313.019531 C 485.070312 312.6875 484.742188 312.347656 484.390625 312.03125 C 483.804688 311.492188 483.21875 311.328125 482.515625 311.046875 C 481.214844 310.53125 479.453125 311.867188 479.605469 313.265625 C 479.691406 313.957031 479.667969 314.554688 479.984375 315.210938 C 480.195312 315.632812 480.464844 316.035156 480.6875 316.445312 C 481.167969 317.3125 481.695312 318.203125 482.246094 319.039062 C 483.335938 320.667969 484.53125 322.230469 485.695312 323.8125 C 486.820312 325.351562 487.945312 326.886719 489.070312 328.425781 C 489.667969 329.246094 490.265625 330.058594 490.875 330.867188 C 491.59375 331.804688 492.261719 332.886719 493.105469 333.695312 C 494.511719 335.054688 496.679688 335.019531 498.042969 333.707031 C 499.355469 333.015625 500.539062 331.898438 501.605469 330.984375 C 503.085938 329.714844 504.5625 328.472656 506.015625 327.183594 C 508.84375 324.671875 511.597656 322.089844 514.339844 319.484375 C 517.085938 316.890625 519.828125 314.296875 522.574219 311.703125 C 523.980469 310.378906 525.386719 309.039062 526.796875 307.714844 C 528.273438 306.316406 529.914062 304.992188 531.050781 303.300781 C 533.082031 300.308594 529.128906 296.671875 526.199219 298.441406 Z M 526.1875 298.429688 "/><path style=" stroke:none;fill-rule:nonzero;fill:#000000;fill-opacity:1;" d="M 489.75 167.855469 C 489.75 167.855469 489.820312 167.914062 489.832031 167.914062 Z M 489.75 167.855469 "/><path style=" stroke:none;fill-rule:nonzero;fill:#000000;fill-opacity:1;" d="M 523.453125 153.363281 C 522.292969 152.1875 520.582031 152.105469 519.160156 152.8125 C 517.730469 153.515625 516.511719 154.933594 515.363281 156.015625 C 514.257812 157.046875 513.179688 158.101562 512.113281 159.183594 C 509.921875 161.378906 507.796875 163.652344 505.746094 165.988281 C 503.660156 168.359375 501.640625 170.835938 499.800781 173.394531 C 499.097656 174.378906 498.394531 175.378906 497.738281 176.410156 C 496.28125 174.777344 494.816406 173.160156 493.339844 171.550781 C 492.34375 170.449219 491.371094 169.261719 490.253906 168.277344 C 490.019531 168.101562 489.796875 167.925781 489.5625 167.75 C 489.621094 167.796875 489.691406 167.832031 489.75 167.878906 C 489.644531 167.785156 489.46875 167.585938 489.445312 167.5625 C 489.1875 167.316406 488.917969 167.058594 488.660156 166.808594 C 488.167969 166.339844 487.675781 165.941406 487.054688 165.683594 C 486.644531 165.507812 486.246094 165.414062 485.824219 165.273438 C 485.011719 165.015625 484.0625 165.296875 483.476562 165.894531 C 482.820312 166.550781 482.714844 167.363281 482.855469 168.242188 C 482.75 167.632812 482.890625 168.640625 482.902344 168.734375 C 482.925781 168.898438 482.949219 169.0625 482.996094 169.226562 C 483.148438 169.792969 483.441406 170.285156 483.78125 170.753906 C 484.191406 171.339844 484.601562 171.9375 485 172.527344 C 485.988281 173.96875 487.160156 175.308594 488.261719 176.65625 C 490.195312 179.027344 492.109375 181.410156 494.113281 183.722656 C 495.414062 185.222656 498.148438 185.152344 499.460938 183.722656 C 499.460938 183.722656 499.472656 183.699219 499.484375 183.699219 C 500.539062 183.109375 501.40625 182.113281 502.179688 181.257812 C 503.191406 180.152344 504.117188 178.945312 505.089844 177.804688 C 507.058594 175.519531 509.007812 173.207031 511.011719 170.953125 C 512.96875 168.757812 515 166.621094 517.097656 164.546875 C 518.175781 163.476562 519.265625 162.433594 520.371094 161.402344 C 521.625 160.226562 523.078125 159.160156 524.015625 157.703125 C 524.859375 156.390625 524.53125 154.476562 523.464844 153.410156 Z M 523.453125 153.363281 "/><g clip-rule="nonzero" clip-path="url(#f00bab9bc0)"><path style=" stroke:none;fill-rule:nonzero;fill:#000000;fill-opacity:1;" d="M 549.015625 73.597656 C 549.085938 73.304688 549.121094 72.988281 549.132812 72.648438 C 549.15625 62.378906 549.132812 52.113281 549.109375 41.84375 C 549.109375 36.761719 549.050781 31.667969 548.875 26.589844 C 548.78125 23.949219 548.769531 21.285156 548.40625 18.667969 C 548.242188 17.527344 548.171875 15.96875 547.574219 14.945312 C 546.894531 13.773438 545.347656 13.164062 544.117188 13.832031 C 541.898438 15.027344 541.957031 18.808594 541.804688 21.015625 C 541.640625 23.347656 541.59375 25.707031 541.523438 28.054688 C 541.371094 33.042969 541.347656 38.03125 541.335938 43.015625 C 541.324219 52.898438 541.289062 62.765625 541.3125 72.648438 C 541.3125 72.695312 541.3125 72.730469 541.324219 72.765625 C 540.023438 72.695312 538.722656 72.636719 537.40625 72.625 C 534.195312 72.589844 530.992188 72.507812 527.78125 72.402344 C 521.273438 72.203125 514.753906 72.367188 508.242188 72.367188 C 495.214844 72.367188 482.1875 72.367188 469.171875 72.355469 C 465.476562 72.355469 461.78125 72.414062 458.089844 72.472656 C 456.671875 72.496094 455.261719 72.578125 453.84375 72.683594 C 453.84375 63.261719 453.867188 53.824219 453.65625 44.402344 C 453.550781 39.53125 453.503906 34.648438 453.292969 29.78125 C 453.175781 27.246094 453.046875 24.710938 452.859375 22.175781 C 452.671875 19.828125 452.671875 16.953125 451.792969 14.757812 C 451.21875 13.339844 449.46875 13.339844 448.894531 14.757812 C 448.003906 16.964844 448.003906 19.828125 447.828125 22.175781 C 447.640625 24.617188 447.511719 27.046875 447.40625 29.488281 C 447.183594 34.449219 447.136719 39.425781 447.03125 44.402344 C 446.808594 54.339844 446.855469 64.292969 446.84375 74.234375 C 446.84375 74.773438 446.949219 75.253906 447.125 75.664062 C 446.867188 76.308594 446.996094 77.121094 447.511719 77.601562 C 448.730469 78.738281 449.972656 79.640625 451.6875 79.832031 C 453.421875 80.019531 455.179688 80.171875 456.941406 80.195312 C 460.140625 80.242188 463.355469 80.324219 466.566406 80.324219 C 473.074219 80.324219 479.597656 80.324219 486.105469 80.324219 C 499.132812 80.324219 512.160156 80.324219 525.175781 80.324219 C 532.578125 80.324219 539.953125 79.914062 547.339844 79.605469 C 550.847656 79.464844 551.398438 75.125 549.027344 73.621094 Z M 549.015625 73.597656 "/></g><path style=" stroke:none;fill-rule:nonzero;fill:#000000;fill-opacity:1;" d="M 183.664062 187.710938 C 183.664062 187.710938 193.933594 207.648438 170.902344 213.257812 C 170.902344 213.257812 181.515625 244.355469 149.609375 247.570312 C 113.539062 251.210938 96.207031 231.636719 96.523438 202.976562 C 96.839844 174.320312 116.75 160.929688 116.75 160.929688 C 116.75 160.929688 104.800781 130.351562 123.550781 107.746094 C 138.796875 89.382812 154.464844 89.546875 154.476562 89.546875 C 154.816406 89.546875 161.394531 79.300781 162.121094 78.503906 C 166.882812 73.269531 173.097656 69.632812 179.570312 66.875 C 202.929688 56.933594 236.914062 60.902344 254.949219 80.265625 C 254.949219 80.265625 267.109375 78.714844 278.296875 81.203125 C 289.484375 83.691406 298.746094 92.210938 296.660156 101.445312 C 291.371094 124.8125 268.960938 109.859375 268.960938 109.859375 C 268.960938 109.859375 256.4375 159.066406 196.128906 154.089844 C 196.128906 154.089844 185.855469 136.03125 172.160156 142.871094 C 158.460938 149.710938 159.398438 168.722656 164.371094 176.199219 C 169.34375 183.671875 183.675781 187.722656 183.675781 187.722656 Z M 183.664062 187.710938 "/><g clip-rule="nonzero" clip-path="url(#fc28867285)"><g clip-rule="nonzero" clip-path="url(#de0d5f0000)"><g clip-rule="nonzero" clip-path="url(#575234bbab)"><g clip-rule="nonzero" clip-path="url(#f7c80845fd)"><path style=" stroke:none;fill-rule:nonzero;fill:#000000;fill-opacity:1;" d="M 720.335938 287.179688 L 710.039062 288.769531 L 690.742188 278.734375 C 689.253906 277.960938 687.371094 278.894531 687.097656 280.566406 L 685.695312 289.242188 C 682.300781 285.808594 678.484375 282.957031 674.398438 280.832031 L 679.15625 272.691406 C 679.65625 271.84375 679.609375 270.777344 679.042969 269.976562 L 665.152344 250.363281 L 667.550781 237.671875 C 668.152344 234.488281 663.210938 233.566406 662.609375 236.75 L 660.015625 250.488281 C 659.890625 251.15625 660.039062 251.847656 660.433594 252.402344 L 674.003906 271.5625 L 669.773438 278.796875 C 668.320312 278.253906 666.855469 277.792969 665.382812 277.445312 C 661.628906 269.4375 653.203125 264.28125 644.335938 264.597656 C 643.410156 263.132812 642.277344 261.929688 640.835938 260.949219 C 641.507812 257.625 642.363281 249.785156 638.40625 248 C 636.128906 246.972656 633.867188 249.699219 635.3125 251.742188 C 636.710938 253.71875 636.40625 256.71875 636.066406 258.96875 C 629.183594 257.691406 622.4375 262.46875 621.355469 269.386719 C 619.121094 268.957031 616.191406 268.253906 614.792969 266.277344 C 613.34375 264.234375 610.023438 265.460938 610.234375 267.949219 C 610.605469 272.277344 618.285156 274.066406 621.644531 274.542969 C 622.089844 276.230469 622.851562 277.695312 623.921875 279.054688 C 620.660156 287.363281 622.792969 296.976562 629.089844 303.222656 C 628.9375 304.71875 628.875 306.230469 628.902344 307.757812 L 620.644531 309.351562 L 607.074219 290.191406 C 606.683594 289.636719 606.082031 289.265625 605.40625 289.164062 L 591.585938 287.050781 C 588.382812 286.5625 587.613281 291.527344 590.816406 292.015625 L 603.585938 293.964844 L 617.476562 313.578125 C 618.042969 314.378906 619.03125 314.777344 620 314.589844 L 629.3125 312.792969 C 629.960938 317.34375 631.367188 321.894531 633.488281 326.257812 L 624.792969 324.695312 C 623.125 324.394531 621.617188 325.867188 621.851562 327.527344 L 624.914062 349.0625 L 619.996094 358.246094 C 618.464844 361.109375 622.898438 363.460938 624.425781 360.609375 L 629.734375 350.699219 C 629.988281 350.226562 630.082031 349.6875 630.007812 349.160156 L 627.316406 330.253906 L 636.738281 331.953125 C 638.144531 334.070312 639.664062 336.039062 641.382812 337.917969 L 639.050781 351.476562 C 638.941406 352.128906 639.09375 352.804688 639.476562 353.347656 L 650.480469 368.882812 L 648.25 381.863281 C 647.703125 385.054688 652.652344 385.894531 653.203125 382.703125 L 655.609375 368.699219 C 655.722656 368.042969 655.570312 367.367188 655.1875 366.824219 L 644.183594 351.289062 L 645.75 342.175781 C 657.066406 351.757812 674.457031 356.25 687.417969 347.070312 C 700.398438 337.878906 701.949219 320 696.617188 306.136719 L 705.75 307.6875 L 716.75 323.222656 C 717.136719 323.765625 717.722656 324.132812 718.378906 324.242188 L 732.390625 326.621094 C 735.582031 327.164062 736.433594 322.210938 733.238281 321.671875 L 720.253906 319.464844 L 709.253906 303.929688 C 708.867188 303.386719 708.285156 303.019531 707.625 302.910156 L 694.074219 300.609375 C 692.875 298.367188 691.519531 296.234375 689.984375 294.203125 L 691.507812 284.796875 L 708.445312 293.605469 C 708.917969 293.851562 709.460938 293.941406 709.988281 293.863281 L 721.097656 292.144531 C 724.292969 291.648438 723.546875 286.683594 720.335938 287.179688 Z M 629.402344 265.152344 C 632.1875 263.179688 636.03125 263.371094 638.632812 265.554688 C 633.835938 266.964844 629.640625 269.9375 626.722656 273.988281 C 625.523438 270.8125 626.617188 267.125 629.402344 265.152344 Z M 627.519531 288.953125 C 627.15625 285.902344 627.695312 282.695312 629.003906 279.910156 C 630.691406 277.167969 632.144531 274.753906 634.847656 272.839844 C 637.53125 270.9375 640.304688 270.320312 643.449219 269.675781 C 649.394531 269.070312 655.386719 271.796875 658.980469 276.523438 C 645.710938 275.867188 634.097656 284.089844 630.316406 296.828125 C 628.75 294.453125 627.773438 291.769531 627.519531 288.953125 C 627.390625 287.863281 627.773438 291.769531 627.519531 288.953125 Z M 684.519531 342.976562 C 671.675781 352.070312 654.539062 344.980469 645.019531 334.503906 C 633.96875 322.335938 627.953125 299.765625 641.949219 287.21875 L 657.808594 309.613281 C 659.679688 312.253906 663.785156 309.347656 661.914062 306.707031 L 646.050781 284.308594 C 662.890625 275.085938 682.738281 288.984375 690.210938 304.015625 C 696.433594 316.347656 696.972656 334.152344 684.519531 342.976562 Z M 684.519531 342.976562 "/></g></g></g></g><g clip-rule="nonzero" clip-path="url(#c08e95fb71)"><path style=" stroke:none;fill-rule:nonzero;fill:#000000;fill-opacity:1;" d="M 689.359375 108.65625 C 688.898438 108.65625 688.441406 108.699219 687.992188 108.789062 C 687.539062 108.878906 687.101562 109.011719 686.675781 109.1875 C 686.25 109.367188 685.84375 109.582031 685.460938 109.839844 C 685.078125 110.09375 684.722656 110.386719 684.398438 110.710938 C 684.070312 111.039062 683.78125 111.394531 683.523438 111.777344 C 683.269531 112.160156 683.050781 112.566406 682.875 112.992188 C 682.699219 113.417969 682.566406 113.855469 682.476562 114.308594 C 682.386719 114.761719 682.34375 115.21875 682.34375 115.679688 C 682.34375 116.140625 682.386719 116.597656 682.476562 117.050781 C 682.566406 117.503906 682.699219 117.941406 682.875 118.367188 C 683.050781 118.792969 683.269531 119.199219 683.523438 119.582031 C 683.78125 119.964844 684.070312 120.320312 684.398438 120.648438 C 684.722656 120.972656 685.078125 121.265625 685.460938 121.519531 C 685.84375 121.777344 686.25 121.992188 686.675781 122.167969 C 687.101562 122.347656 687.539062 122.480469 687.992188 122.570312 C 688.441406 122.660156 688.898438 122.703125 689.359375 122.703125 C 689.820312 122.703125 690.277344 122.660156 690.726562 122.570312 C 691.179688 122.480469 691.621094 122.347656 692.046875 122.167969 C 692.46875 121.992188 692.875 121.777344 693.257812 121.519531 C 693.640625 121.265625 693.996094 120.972656 694.320312 120.648438 C 694.648438 120.320312 694.9375 119.964844 695.195312 119.582031 C 695.449219 119.199219 695.667969 118.792969 695.84375 118.367188 C 696.019531 117.941406 696.152344 117.503906 696.242188 117.050781 C 696.332031 116.597656 696.378906 116.140625 696.378906 115.679688 C 696.375 115.21875 696.328125 114.761719 696.238281 114.308594 C 696.148438 113.859375 696.015625 113.421875 695.835938 112.996094 C 695.660156 112.570312 695.445312 112.164062 695.1875 111.78125 C 694.933594 111.398438 694.640625 111.042969 694.316406 110.71875 C 693.988281 110.390625 693.636719 110.101562 693.253906 109.84375 C 692.871094 109.589844 692.46875 109.371094 692.042969 109.195312 C 691.617188 109.019531 691.179688 108.882812 690.726562 108.792969 C 690.277344 108.703125 689.820312 108.65625 689.359375 108.65625 Z M 689.359375 118.019531 C 689.050781 118.019531 688.75 117.960938 688.464844 117.84375 C 688.175781 117.722656 687.925781 117.554688 687.707031 117.335938 C 687.484375 117.117188 687.316406 116.863281 687.199219 116.574219 C 687.078125 116.289062 687.019531 115.988281 687.019531 115.679688 C 687.019531 115.367188 687.078125 115.070312 687.199219 114.785156 C 687.316406 114.496094 687.484375 114.242188 687.707031 114.023438 C 687.925781 113.804688 688.175781 113.636719 688.464844 113.515625 C 688.75 113.398438 689.050781 113.339844 689.359375 113.339844 C 689.667969 113.339844 689.96875 113.398438 690.253906 113.515625 C 690.542969 113.636719 690.792969 113.804688 691.011719 114.023438 C 691.234375 114.242188 691.402344 114.496094 691.519531 114.785156 C 691.640625 115.070312 691.699219 115.367188 691.699219 115.679688 C 691.699219 115.988281 691.636719 116.289062 691.519531 116.574219 C 691.398438 116.859375 691.230469 117.113281 691.011719 117.332031 C 690.792969 117.554688 690.539062 117.722656 690.253906 117.839844 C 689.96875 117.960938 689.667969 118.019531 689.359375 118.019531 Z M 626.203125 129.730469 C 625.894531 129.730469 625.589844 129.757812 625.289062 129.820312 C 624.988281 129.878906 624.695312 129.96875 624.410156 130.085938 C 624.128906 130.203125 623.859375 130.347656 623.601562 130.519531 C 623.347656 130.691406 623.109375 130.882812 622.894531 131.101562 C 622.675781 131.320312 622.480469 131.554688 622.3125 131.8125 C 622.140625 132.066406 621.996094 132.335938 621.878906 132.621094 C 621.761719 132.90625 621.671875 133.199219 621.613281 133.5 C 621.554688 133.800781 621.523438 134.105469 621.523438 134.414062 C 621.523438 134.71875 621.554688 135.023438 621.613281 135.328125 C 621.671875 135.628906 621.761719 135.921875 621.878906 136.207031 C 621.996094 136.488281 622.140625 136.757812 622.3125 137.015625 C 622.480469 137.269531 622.675781 137.507812 622.894531 137.726562 C 623.109375 137.941406 623.347656 138.136719 623.601562 138.308594 C 623.859375 138.476562 624.128906 138.621094 624.410156 138.738281 C 624.695312 138.859375 624.988281 138.945312 625.289062 139.007812 C 625.589844 139.066406 625.894531 139.097656 626.203125 139.097656 C 626.507812 139.097656 626.8125 139.066406 627.113281 139.007812 C 627.414062 138.945312 627.707031 138.859375 627.992188 138.738281 C 628.277344 138.621094 628.546875 138.476562 628.800781 138.308594 C 629.054688 138.136719 629.292969 137.941406 629.507812 137.726562 C 629.726562 137.507812 629.921875 137.269531 630.089844 137.015625 C 630.261719 136.757812 630.40625 136.488281 630.523438 136.207031 C 630.640625 135.921875 630.730469 135.628906 630.789062 135.328125 C 630.851562 135.023438 630.878906 134.71875 630.878906 134.414062 C 630.878906 134.105469 630.847656 133.800781 630.789062 133.5 C 630.726562 133.199219 630.636719 132.90625 630.519531 132.621094 C 630.402344 132.339844 630.257812 132.070312 630.085938 131.8125 C 629.917969 131.558594 629.722656 131.324219 629.503906 131.105469 C 629.289062 130.886719 629.050781 130.695312 628.796875 130.523438 C 628.542969 130.351562 628.273438 130.207031 627.988281 130.089844 C 627.707031 129.972656 627.414062 129.882812 627.113281 129.820312 C 626.8125 129.761719 626.507812 129.730469 626.203125 129.730469 Z M 674.15625 132.070312 C 673.769531 132.070312 673.390625 132.109375 673.015625 132.183594 C 672.636719 132.257812 672.273438 132.371094 671.917969 132.515625 C 671.5625 132.664062 671.226562 132.84375 670.90625 133.058594 C 670.585938 133.273438 670.292969 133.515625 670.019531 133.785156 C 669.75 134.058594 669.503906 134.351562 669.292969 134.671875 C 669.078125 134.992188 668.898438 135.328125 668.753906 135.683594 C 668.605469 136.039062 668.492188 136.40625 668.417969 136.785156 C 668.34375 137.160156 668.308594 137.542969 668.308594 137.925781 C 668.308594 138.308594 668.34375 138.691406 668.417969 139.066406 C 668.492188 139.445312 668.605469 139.8125 668.753906 140.164062 C 668.898438 140.519531 669.078125 140.859375 669.292969 141.179688 C 669.503906 141.496094 669.75 141.792969 670.019531 142.066406 C 670.292969 142.335938 670.585938 142.578125 670.90625 142.792969 C 671.226562 143.007812 671.5625 143.1875 671.917969 143.335938 C 672.273438 143.480469 672.636719 143.59375 673.015625 143.667969 C 673.390625 143.742188 673.769531 143.78125 674.15625 143.78125 C 674.539062 143.78125 674.917969 143.742188 675.296875 143.667969 C 675.671875 143.59375 676.039062 143.480469 676.394531 143.335938 C 676.746094 143.1875 677.085938 143.007812 677.402344 142.792969 C 677.722656 142.578125 678.019531 142.335938 678.289062 142.066406 C 678.5625 141.792969 678.804688 141.496094 679.015625 141.179688 C 679.230469 140.859375 679.410156 140.519531 679.558594 140.164062 C 679.703125 139.8125 679.816406 139.445312 679.890625 139.066406 C 679.964844 138.691406 680.003906 138.308594 680.003906 137.925781 C 680.003906 137.542969 679.964844 137.160156 679.890625 136.785156 C 679.816406 136.40625 679.703125 136.039062 679.558594 135.683594 C 679.410156 135.332031 679.230469 134.992188 679.015625 134.671875 C 678.804688 134.355469 678.5625 134.058594 678.289062 133.785156 C 678.019531 133.515625 677.722656 133.273438 677.402344 133.058594 C 677.085938 132.84375 676.746094 132.664062 676.390625 132.515625 C 676.039062 132.371094 675.671875 132.257812 675.296875 132.183594 C 674.917969 132.109375 674.539062 132.070312 674.15625 132.070312 Z M 674.15625 139.097656 C 674 139.097656 673.851562 139.066406 673.707031 139.007812 C 673.5625 138.949219 673.4375 138.863281 673.328125 138.753906 C 673.21875 138.644531 673.132812 138.515625 673.074219 138.375 C 673.015625 138.230469 672.984375 138.082031 672.984375 137.925781 C 672.984375 137.769531 673.015625 137.621094 673.074219 137.476562 C 673.132812 137.335938 673.21875 137.207031 673.328125 137.097656 C 673.4375 136.988281 673.5625 136.902344 673.707031 136.84375 C 673.851562 136.785156 674 136.753906 674.15625 136.753906 C 674.308594 136.753906 674.460938 136.785156 674.601562 136.84375 C 674.746094 136.902344 674.871094 136.988281 674.980469 137.097656 C 675.089844 137.207031 675.175781 137.335938 675.234375 137.476562 C 675.292969 137.621094 675.324219 137.769531 675.324219 137.925781 C 675.324219 138.082031 675.296875 138.230469 675.238281 138.375 C 675.179688 138.519531 675.09375 138.648438 674.984375 138.757812 C 674.875 138.867188 674.75 138.953125 674.605469 139.011719 C 674.460938 139.070312 674.308594 139.097656 674.15625 139.097656 Z M 662.457031 87.578125 C 662.074219 87.578125 661.695312 87.617188 661.316406 87.691406 C 660.941406 87.765625 660.574219 87.878906 660.222656 88.023438 C 659.867188 88.171875 659.527344 88.351562 659.210938 88.566406 C 658.890625 88.78125 658.59375 89.023438 658.324219 89.292969 C 658.050781 89.566406 657.808594 89.863281 657.597656 90.179688 C 657.382812 90.5 657.203125 90.839844 657.054688 91.195312 C 656.910156 91.546875 656.796875 91.914062 656.722656 92.292969 C 656.648438 92.667969 656.609375 93.050781 656.609375 93.433594 C 656.609375 93.816406 656.648438 94.199219 656.722656 94.574219 C 656.796875 94.953125 656.910156 95.320312 657.054688 95.675781 C 657.203125 96.027344 657.382812 96.367188 657.597656 96.6875 C 657.808594 97.003906 658.050781 97.300781 658.324219 97.574219 C 658.59375 97.84375 658.890625 98.085938 659.210938 98.300781 C 659.527344 98.515625 659.867188 98.695312 660.222656 98.84375 C 660.574219 98.988281 660.941406 99.101562 661.316406 99.175781 C 661.695312 99.25 662.074219 99.289062 662.457031 99.289062 C 662.84375 99.289062 663.222656 99.25 663.601562 99.175781 C 663.976562 99.101562 664.34375 98.988281 664.695312 98.84375 C 665.050781 98.695312 665.386719 98.515625 665.707031 98.300781 C 666.027344 98.085938 666.324219 97.84375 666.59375 97.574219 C 666.867188 97.300781 667.109375 97.003906 667.320312 96.6875 C 667.535156 96.367188 667.714844 96.027344 667.863281 95.675781 C 668.007812 95.320312 668.121094 94.953125 668.195312 94.574219 C 668.269531 94.199219 668.308594 93.816406 668.308594 93.433594 C 668.308594 93.050781 668.269531 92.667969 668.195312 92.292969 C 668.121094 91.914062 668.007812 91.546875 667.859375 91.195312 C 667.714844 90.839844 667.535156 90.5 667.320312 90.183594 C 667.105469 89.863281 666.863281 89.566406 666.59375 89.292969 C 666.320312 89.023438 666.027344 88.78125 665.707031 88.566406 C 665.386719 88.351562 665.050781 88.171875 664.695312 88.027344 C 664.34375 87.878906 663.976562 87.765625 663.601562 87.691406 C 663.222656 87.617188 662.84375 87.578125 662.457031 87.578125 Z M 662.457031 94.605469 C 662.304688 94.605469 662.15625 94.574219 662.011719 94.515625 C 661.867188 94.457031 661.742188 94.371094 661.632812 94.261719 C 661.523438 94.152344 661.4375 94.023438 661.378906 93.882812 C 661.320312 93.738281 661.289062 93.589844 661.289062 93.433594 C 661.289062 93.277344 661.320312 93.128906 661.378906 92.984375 C 661.4375 92.84375 661.523438 92.714844 661.632812 92.605469 C 661.742188 92.496094 661.867188 92.410156 662.011719 92.351562 C 662.15625 92.292969 662.304688 92.261719 662.457031 92.261719 C 662.613281 92.261719 662.761719 92.292969 662.90625 92.351562 C 663.050781 92.410156 663.175781 92.496094 663.285156 92.605469 C 663.394531 92.714844 663.480469 92.84375 663.539062 92.984375 C 663.597656 93.128906 663.628906 93.277344 663.628906 93.433594 C 663.628906 93.589844 663.601562 93.738281 663.542969 93.882812 C 663.484375 94.027344 663.398438 94.15625 663.289062 94.265625 C 663.179688 94.375 663.050781 94.460938 662.910156 94.519531 C 662.765625 94.578125 662.613281 94.605469 662.457031 94.605469 Z M 696.378906 85.238281 C 695.917969 85.238281 695.460938 85.28125 695.007812 85.371094 C 694.554688 85.460938 694.117188 85.597656 693.691406 85.773438 C 693.265625 85.949219 692.863281 86.164062 692.476562 86.421875 C 692.09375 86.679688 691.742188 86.96875 691.414062 87.296875 C 691.089844 87.621094 690.796875 87.976562 690.542969 88.359375 C 690.285156 88.742188 690.070312 89.148438 689.894531 89.574219 C 689.71875 90 689.585938 90.441406 689.496094 90.890625 C 689.40625 91.34375 689.359375 91.800781 689.359375 92.261719 C 689.359375 92.722656 689.40625 93.179688 689.496094 93.632812 C 689.585938 94.085938 689.71875 94.523438 689.894531 94.953125 C 690.070312 95.378906 690.285156 95.78125 690.542969 96.164062 C 690.796875 96.550781 691.089844 96.902344 691.414062 97.230469 C 691.742188 97.554688 692.09375 97.847656 692.476562 98.105469 C 692.863281 98.359375 693.265625 98.578125 693.691406 98.753906 C 694.117188 98.929688 694.554688 99.0625 695.007812 99.152344 C 695.460938 99.242188 695.917969 99.289062 696.378906 99.289062 C 696.835938 99.289062 697.292969 99.242188 697.746094 99.152344 C 698.199219 99.0625 698.636719 98.929688 699.0625 98.753906 C 699.488281 98.578125 699.894531 98.359375 700.277344 98.105469 C 700.660156 97.847656 701.011719 97.554688 701.339844 97.230469 C 701.664062 96.902344 701.957031 96.550781 702.210938 96.164062 C 702.46875 95.78125 702.683594 95.378906 702.859375 94.953125 C 703.035156 94.523438 703.167969 94.085938 703.257812 93.632812 C 703.347656 93.179688 703.394531 92.722656 703.394531 92.261719 C 703.394531 91.800781 703.347656 91.34375 703.257812 90.894531 C 703.164062 90.441406 703.03125 90.003906 702.855469 89.578125 C 702.679688 89.152344 702.460938 88.746094 702.207031 88.363281 C 701.949219 87.980469 701.660156 87.628906 701.332031 87.300781 C 701.007812 86.976562 700.652344 86.683594 700.269531 86.429688 C 699.886719 86.171875 699.484375 85.957031 699.058594 85.777344 C 698.632812 85.601562 698.195312 85.46875 697.746094 85.375 C 697.292969 85.285156 696.835938 85.238281 696.378906 85.238281 Z M 696.378906 94.605469 C 696.066406 94.605469 695.769531 94.546875 695.480469 94.425781 C 695.195312 94.308594 694.941406 94.136719 694.722656 93.917969 C 694.503906 93.699219 694.335938 93.445312 694.214844 93.160156 C 694.097656 92.871094 694.039062 92.574219 694.039062 92.261719 C 694.039062 91.953125 694.097656 91.652344 694.214844 91.367188 C 694.335938 91.078125 694.503906 90.828125 694.722656 90.605469 C 694.941406 90.386719 695.195312 90.21875 695.480469 90.097656 C 695.769531 89.980469 696.066406 89.921875 696.378906 89.921875 C 696.6875 89.921875 696.984375 89.980469 697.273438 90.097656 C 697.558594 90.21875 697.8125 90.386719 698.03125 90.605469 C 698.25 90.828125 698.417969 91.078125 698.539062 91.367188 C 698.65625 91.652344 698.714844 91.953125 698.714844 92.261719 C 698.714844 92.574219 698.65625 92.871094 698.535156 93.15625 C 698.417969 93.445312 698.25 93.695312 698.027344 93.917969 C 697.808594 94.136719 697.558594 94.304688 697.269531 94.425781 C 696.984375 94.542969 696.6875 94.605469 696.378906 94.605469 Z M 696.378906 85.238281 C 695.917969 85.238281 695.460938 85.28125 695.007812 85.371094 C 694.554688 85.460938 694.117188 85.597656 693.691406 85.773438 C 693.265625 85.949219 692.863281 86.164062 692.476562 86.421875 C 692.09375 86.679688 691.742188 86.96875 691.414062 87.296875 C 691.089844 87.621094 690.796875 87.976562 690.542969 88.359375 C 690.285156 88.742188 690.070312 89.148438 689.894531 89.574219 C 689.71875 90 689.585938 90.441406 689.496094 90.890625 C 689.40625 91.34375 689.359375 91.800781 689.359375 92.261719 C 689.359375 92.722656 689.40625 93.179688 689.496094 93.632812 C 689.585938 94.085938 689.71875 94.523438 689.894531 94.953125 C 690.070312 95.378906 690.285156 95.78125 690.542969 96.164062 C 690.796875 96.550781 691.089844 96.902344 691.414062 97.230469 C 691.742188 97.554688 692.09375 97.847656 692.476562 98.105469 C 692.863281 98.359375 693.265625 98.578125 693.691406 98.753906 C 694.117188 98.929688 694.554688 99.0625 695.007812 99.152344 C 695.460938 99.242188 695.917969 99.289062 696.378906 99.289062 C 696.835938 99.289062 697.292969 99.242188 697.746094 99.152344 C 698.199219 99.0625 698.636719 98.929688 699.0625 98.753906 C 699.488281 98.578125 699.894531 98.359375 700.277344 98.105469 C 700.660156 97.847656 701.011719 97.554688 701.339844 97.230469 C 701.664062 96.902344 701.957031 96.550781 702.210938 96.164062 C 702.46875 95.78125 702.683594 95.378906 702.859375 94.953125 C 703.035156 94.523438 703.167969 94.085938 703.257812 93.632812 C 703.347656 93.179688 703.394531 92.722656 703.394531 92.261719 C 703.394531 91.800781 703.347656 91.34375 703.257812 90.894531 C 703.164062 90.441406 703.03125 90.003906 702.855469 89.578125 C 702.679688 89.152344 702.460938 88.746094 702.207031 88.363281 C 701.949219 87.980469 701.660156 87.628906 701.332031 87.300781 C 701.007812 86.976562 700.652344 86.683594 700.269531 86.429688 C 699.886719 86.171875 699.484375 85.957031 699.058594 85.777344 C 698.632812 85.601562 698.195312 85.46875 697.746094 85.375 C 697.292969 85.285156 696.835938 85.238281 696.378906 85.238281 Z M 696.378906 94.605469 C 696.066406 94.605469 695.769531 94.546875 695.480469 94.425781 C 695.195312 94.308594 694.941406 94.136719 694.722656 93.917969 C 694.503906 93.699219 694.335938 93.445312 694.214844 93.160156 C 694.097656 92.871094 694.039062 92.574219 694.039062 92.261719 C 694.039062 91.953125 694.097656 91.652344 694.214844 91.367188 C 694.335938 91.078125 694.503906 90.828125 694.722656 90.605469 C 694.941406 90.386719 695.195312 90.21875 695.480469 90.097656 C 695.769531 89.980469 696.066406 89.921875 696.378906 89.921875 C 696.6875 89.921875 696.984375 89.980469 697.273438 90.097656 C 697.558594 90.21875 697.8125 90.386719 698.03125 90.605469 C 698.25 90.828125 698.417969 91.078125 698.539062 91.367188 C 698.65625 91.652344 698.714844 91.953125 698.714844 92.261719 C 698.714844 92.574219 698.65625 92.871094 698.535156 93.15625 C 698.417969 93.445312 698.25 93.695312 698.027344 93.917969 C 697.808594 94.136719 697.558594 94.304688 697.269531 94.425781 C 696.984375 94.542969 696.6875 94.605469 696.378906 94.605469 Z M 689.359375 108.65625 C 688.898438 108.65625 688.441406 108.699219 687.992188 108.789062 C 687.539062 108.878906 687.101562 109.011719 686.675781 109.1875 C 686.25 109.367188 685.84375 109.582031 685.460938 109.839844 C 685.078125 110.09375 684.722656 110.386719 684.398438 110.710938 C 684.070312 111.039062 683.78125 111.394531 683.523438 111.777344 C 683.269531 112.160156 683.050781 112.566406 682.875 112.992188 C 682.699219 113.417969 682.566406 113.855469 682.476562 114.308594 C 682.386719 114.761719 682.34375 115.21875 682.34375 115.679688 C 682.34375 116.140625 682.386719 116.597656 682.476562 117.050781 C 682.566406 117.503906 682.699219 117.941406 682.875 118.367188 C 683.050781 118.792969 683.269531 119.199219 683.523438 119.582031 C 683.78125 119.964844 684.070312 120.320312 684.398438 120.648438 C 684.722656 120.972656 685.078125 121.265625 685.460938 121.519531 C 685.84375 121.777344 686.25 121.992188 686.675781 122.167969 C 687.101562 122.347656 687.539062 122.480469 687.992188 122.570312 C 688.441406 122.660156 688.898438 122.703125 689.359375 122.703125 C 689.820312 122.703125 690.277344 122.660156 690.726562 122.570312 C 691.179688 122.480469 691.621094 122.347656 692.046875 122.167969 C 692.46875 121.992188 692.875 121.777344 693.257812 121.519531 C 693.640625 121.265625 693.996094 120.972656 694.320312 120.648438 C 694.648438 120.320312 694.9375 119.964844 695.195312 119.582031 C 695.449219 119.199219 695.667969 118.792969 695.84375 118.367188 C 696.019531 117.941406 696.152344 117.503906 696.242188 117.050781 C 696.332031 116.597656 696.378906 116.140625 696.378906 115.679688 C 696.375 115.21875 696.328125 114.761719 696.238281 114.308594 C 696.148438 113.859375 696.015625 113.421875 695.835938 112.996094 C 695.660156 112.570312 695.445312 112.164062 695.1875 111.78125 C 694.933594 111.398438 694.640625 111.042969 694.316406 110.71875 C 693.988281 110.390625 693.636719 110.101562 693.253906 109.84375 C 692.871094 109.589844 692.46875 109.371094 692.042969 109.195312 C 691.617188 109.019531 691.179688 108.882812 690.726562 108.792969 C 690.277344 108.703125 689.820312 108.65625 689.359375 108.65625 Z M 689.359375 118.019531 C 689.050781 118.019531 688.75 117.960938 688.464844 117.84375 C 688.175781 117.722656 687.925781 117.554688 687.707031 117.335938 C 687.484375 117.117188 687.316406 116.863281 687.199219 116.574219 C 687.078125 116.289062 687.019531 115.988281 687.019531 115.679688 C 687.019531 115.367188 687.078125 115.070312 687.199219 114.785156 C 687.316406 114.496094 687.484375 114.242188 687.707031 114.023438 C 687.925781 113.804688 688.175781 113.636719 688.464844 113.515625 C 688.75 113.398438 689.050781 113.339844 689.359375 113.339844 C 689.667969 113.339844 689.96875 113.398438 690.253906 113.515625 C 690.542969 113.636719 690.792969 113.804688 691.011719 114.023438 C 691.234375 114.242188 691.402344 114.496094 691.519531 114.785156 C 691.640625 115.070312 691.699219 115.367188 691.699219 115.679688 C 691.699219 115.988281 691.636719 116.289062 691.519531 116.574219 C 691.398438 116.859375 691.230469 117.113281 691.011719 117.332031 C 690.792969 117.554688 690.539062 117.722656 690.253906 117.839844 C 689.96875 117.960938 689.667969 118.019531 689.359375 118.019531 Z M 674.15625 132.070312 C 673.769531 132.070312 673.390625 132.109375 673.015625 132.183594 C 672.636719 132.257812 672.273438 132.371094 671.917969 132.515625 C 671.5625 132.664062 671.226562 132.84375 670.90625 133.058594 C 670.585938 133.273438 670.292969 133.515625 670.019531 133.785156 C 669.75 134.058594 669.503906 134.351562 669.292969 134.671875 C 669.078125 134.992188 668.898438 135.328125 668.753906 135.683594 C 668.605469 136.039062 668.492188 136.40625 668.417969 136.785156 C 668.34375 137.160156 668.308594 137.542969 668.308594 137.925781 C 668.308594 138.308594 668.34375 138.691406 668.417969 139.066406 C 668.492188 139.445312 668.605469 139.8125 668.753906 140.164062 C 668.898438 140.519531 669.078125 140.859375 669.292969 141.179688 C 669.503906 141.496094 669.75 141.792969 670.019531 142.066406 C 670.292969 142.335938 670.585938 142.578125 670.90625 142.792969 C 671.226562 143.007812 671.5625 143.1875 671.917969 143.335938 C 672.273438 143.480469 672.636719 143.59375 673.015625 143.667969 C 673.390625 143.742188 673.769531 143.78125 674.15625 143.78125 C 674.539062 143.78125 674.917969 143.742188 675.296875 143.667969 C 675.671875 143.59375 676.039062 143.480469 676.394531 143.335938 C 676.746094 143.1875 677.085938 143.007812 677.402344 142.792969 C 677.722656 142.578125 678.019531 142.335938 678.289062 142.066406 C 678.5625 141.792969 678.804688 141.496094 679.015625 141.179688 C 679.230469 140.859375 679.410156 140.519531 679.558594 140.164062 C 679.703125 139.8125 679.816406 139.445312 679.890625 139.066406 C 679.964844 138.691406 680.003906 138.308594 680.003906 137.925781 C 680.003906 137.542969 679.964844 137.160156 679.890625 136.785156 C 679.816406 136.40625 679.703125 136.039062 679.558594 135.683594 C 679.410156 135.332031 679.230469 134.992188 679.015625 134.671875 C 678.804688 134.355469 678.5625 134.058594 678.289062 133.785156 C 678.019531 133.515625 677.722656 133.273438 677.402344 133.058594 C 677.085938 132.84375 676.746094 132.664062 676.390625 132.515625 C 676.039062 132.371094 675.671875 132.257812 675.296875 132.183594 C 674.917969 132.109375 674.539062 132.070312 674.15625 132.070312 Z M 674.15625 139.097656 C 674 139.097656 673.851562 139.066406 673.707031 139.007812 C 673.5625 138.949219 673.4375 138.863281 673.328125 138.753906 C 673.21875 138.644531 673.132812 138.515625 673.074219 138.375 C 673.015625 138.230469 672.984375 138.082031 672.984375 137.925781 C 672.984375 137.769531 673.015625 137.621094 673.074219 137.476562 C 673.132812 137.335938 673.21875 137.207031 673.328125 137.097656 C 673.4375 136.988281 673.5625 136.902344 673.707031 136.84375 C 673.851562 136.785156 674 136.753906 674.15625 136.753906 C 674.308594 136.753906 674.460938 136.785156 674.601562 136.84375 C 674.746094 136.902344 674.871094 136.988281 674.980469 137.097656 C 675.089844 137.207031 675.175781 137.335938 675.234375 137.476562 C 675.292969 137.621094 675.324219 137.769531 675.324219 137.925781 C 675.324219 138.082031 675.296875 138.230469 675.238281 138.375 C 675.179688 138.519531 675.09375 138.648438 674.984375 138.757812 C 674.875 138.867188 674.75 138.953125 674.605469 139.011719 C 674.460938 139.070312 674.308594 139.097656 674.15625 139.097656 Z M 662.457031 87.578125 C 662.074219 87.578125 661.695312 87.617188 661.316406 87.691406 C 660.941406 87.765625 660.574219 87.878906 660.222656 88.023438 C 659.867188 88.171875 659.527344 88.351562 659.210938 88.566406 C 658.890625 88.78125 658.59375 89.023438 658.324219 89.292969 C 658.050781 89.566406 657.808594 89.863281 657.597656 90.179688 C 657.382812 90.5 657.203125 90.839844 657.054688 91.195312 C 656.910156 91.546875 656.796875 91.914062 656.722656 92.292969 C 656.648438 92.667969 656.609375 93.050781 656.609375 93.433594 C 656.609375 93.816406 656.648438 94.199219 656.722656 94.574219 C 656.796875 94.953125 656.910156 95.320312 657.054688 95.675781 C 657.203125 96.027344 657.382812 96.367188 657.597656 96.6875 C 657.808594 97.003906 658.050781 97.300781 658.324219 97.574219 C 658.59375 97.84375 658.890625 98.085938 659.210938 98.300781 C 659.527344 98.515625 659.867188 98.695312 660.222656 98.84375 C 660.574219 98.988281 660.941406 99.101562 661.316406 99.175781 C 661.695312 99.25 662.074219 99.289062 662.457031 99.289062 C 662.84375 99.289062 663.222656 99.25 663.601562 99.175781 C 663.976562 99.101562 664.34375 98.988281 664.695312 98.84375 C 665.050781 98.695312 665.386719 98.515625 665.707031 98.300781 C 666.027344 98.085938 666.324219 97.84375 666.59375 97.574219 C 666.867188 97.300781 667.109375 97.003906 667.320312 96.6875 C 667.535156 96.367188 667.714844 96.027344 667.863281 95.675781 C 668.007812 95.320312 668.121094 94.953125 668.195312 94.574219 C 668.269531 94.199219 668.308594 93.816406 668.308594 93.433594 C 668.308594 93.050781 668.269531 92.667969 668.195312 92.292969 C 668.121094 91.914062 668.007812 91.546875 667.859375 91.195312 C 667.714844 90.839844 667.535156 90.5 667.320312 90.183594 C 667.105469 89.863281 666.863281 89.566406 666.59375 89.292969 C 666.320312 89.023438 666.027344 88.78125 665.707031 88.566406 C 665.386719 88.351562 665.050781 88.171875 664.695312 88.027344 C 664.34375 87.878906 663.976562 87.765625 663.601562 87.691406 C 663.222656 87.617188 662.84375 87.578125 662.457031 87.578125 Z M 662.457031 94.605469 C 662.304688 94.605469 662.15625 94.574219 662.011719 94.515625 C 661.867188 94.457031 661.742188 94.371094 661.632812 94.261719 C 661.523438 94.152344 661.4375 94.023438 661.378906 93.882812 C 661.320312 93.738281 661.289062 93.589844 661.289062 93.433594 C 661.289062 93.277344 661.320312 93.128906 661.378906 92.984375 C 661.4375 92.84375 661.523438 92.714844 661.632812 92.605469 C 661.742188 92.496094 661.867188 92.410156 662.011719 92.351562 C 662.15625 92.292969 662.304688 92.261719 662.457031 92.261719 C 662.613281 92.261719 662.761719 92.292969 662.90625 92.351562 C 663.050781 92.410156 663.175781 92.496094 663.285156 92.605469 C 663.394531 92.714844 663.480469 92.84375 663.539062 92.984375 C 663.597656 93.128906 663.628906 93.277344 663.628906 93.433594 C 663.628906 93.589844 663.601562 93.738281 663.542969 93.882812 C 663.484375 94.027344 663.398438 94.15625 663.289062 94.265625 C 663.179688 94.375 663.050781 94.460938 662.910156 94.519531 C 662.765625 94.578125 662.613281 94.605469 662.457031 94.605469 Z M 626.203125 129.730469 C 625.894531 129.730469 625.589844 129.757812 625.289062 129.820312 C 624.988281 129.878906 624.695312 129.96875 624.410156 130.085938 C 624.128906 130.203125 623.859375 130.347656 623.601562 130.519531 C 623.347656 130.691406 623.109375 130.882812 622.894531 131.101562 C 622.675781 131.320312 622.480469 131.554688 622.3125 131.8125 C 622.140625 132.066406 621.996094 132.335938 621.878906 132.621094 C 621.761719 132.90625 621.671875 133.199219 621.613281 133.5 C 621.554688 133.800781 621.523438 134.105469 621.523438 134.414062 C 621.523438 134.71875 621.554688 135.023438 621.613281 135.328125 C 621.671875 135.628906 621.761719 135.921875 621.878906 136.207031 C 621.996094 136.488281 622.140625 136.757812 622.3125 137.015625 C 622.480469 137.269531 622.675781 137.507812 622.894531 137.726562 C 623.109375 137.941406 623.347656 138.136719 623.601562 138.308594 C 623.859375 138.476562 624.128906 138.621094 624.410156 138.738281 C 624.695312 138.859375 624.988281 138.945312 625.289062 139.007812 C 625.589844 139.066406 625.894531 139.097656 626.203125 139.097656 C 626.507812 139.097656 626.8125 139.066406 627.113281 139.007812 C 627.414062 138.945312 627.707031 138.859375 627.992188 138.738281 C 628.277344 138.621094 628.546875 138.476562 628.800781 138.308594 C 629.054688 138.136719 629.292969 137.941406 629.507812 137.726562 C 629.726562 137.507812 629.921875 137.269531 630.089844 137.015625 C 630.261719 136.757812 630.40625 136.488281 630.523438 136.207031 C 630.640625 135.921875 630.730469 135.628906 630.789062 135.328125 C 630.851562 135.023438 630.878906 134.71875 630.878906 134.414062 C 630.878906 134.105469 630.847656 133.800781 630.789062 133.5 C 630.726562 133.199219 630.636719 132.90625 630.519531 132.621094 C 630.402344 132.339844 630.257812 132.070312 630.085938 131.8125 C 629.917969 131.558594 629.722656 131.324219 629.503906 131.105469 C 629.289062 130.886719 629.050781 130.695312 628.796875 130.523438 C 628.542969 130.351562 628.273438 130.207031 627.988281 130.089844 C 627.707031 129.972656 627.414062 129.882812 627.113281 129.820312 C 626.8125 129.761719 626.507812 129.730469 626.203125 129.730469 Z M 723.792969 53.15625 C 723.257812 52.609375 722.609375 52.382812 721.851562 52.476562 C 721.664062 52.476562 701.851562 54.679688 679.160156 61.914062 C 678.894531 62.007812 678.65625 62.140625 678.4375 62.316406 C 678.21875 62.492188 678.039062 62.699219 677.894531 62.9375 C 677.75 63.179688 677.648438 63.433594 677.59375 63.710938 C 677.535156 63.984375 677.527344 64.261719 677.570312 64.539062 C 677.625 64.800781 677.65625 65.066406 677.664062 65.332031 C 677.664062 65.71875 677.625 66.097656 677.550781 66.476562 C 677.476562 66.851562 677.363281 67.21875 677.21875 67.574219 C 677.070312 67.929688 676.890625 68.265625 676.675781 68.585938 C 676.464844 68.90625 676.222656 69.199219 675.949219 69.472656 C 675.679688 69.746094 675.382812 69.988281 675.0625 70.199219 C 674.746094 70.414062 674.40625 70.59375 674.054688 70.742188 C 673.699219 70.890625 673.332031 71 672.957031 71.074219 C 672.578125 71.148438 672.199219 71.1875 671.816406 71.1875 C 670.800781 71.1875 669.851562 70.9375 668.96875 70.4375 C 668.082031 69.933594 667.378906 69.25 666.855469 68.378906 C 666.710938 68.140625 666.527344 67.933594 666.304688 67.761719 C 666.085938 67.589844 665.84375 67.460938 665.578125 67.375 C 665.3125 67.289062 665.039062 67.253906 664.761719 67.265625 C 664.480469 67.273438 664.214844 67.335938 663.957031 67.441406 C 646.878906 74.464844 633.476562 83.082031 624.121094 93.105469 C 592.214844 127.152344 624.144531 163.707031 624.449219 164.082031 C 624.527344 164.148438 624.613281 164.210938 624.703125 164.269531 C 619.839844 170.964844 617.007812 175.132812 616.9375 175.25 C 616.765625 175.507812 616.644531 175.789062 616.582031 176.09375 C 616.519531 176.398438 616.519531 176.707031 616.578125 177.011719 C 616.636719 177.316406 616.753906 177.597656 616.925781 177.859375 C 617.097656 178.117188 617.3125 178.332031 617.570312 178.507812 C 617.96875 178.769531 618.402344 178.902344 618.878906 178.90625 C 619.269531 178.90625 619.636719 178.816406 619.980469 178.632812 C 620.324219 178.449219 620.605469 178.195312 620.820312 177.875 C 620.890625 177.757812 624.050781 173.097656 629.429688 165.722656 C 636.882812 167.359375 644.421875 168.195312 652.050781 168.226562 C 668.238281 168.226562 688.027344 164.035156 699.722656 146.472656 C 714.808594 123.828125 724.050781 57.910156 724.421875 55.125 C 724.523438 54.367188 724.3125 53.710938 723.792969 53.15625 Z M 695.839844 143.875 C 679.933594 167.734375 645.96875 164.082031 632.515625 161.53125 C 642.320312 148.277344 657.476562 128.816406 674.691406 110.246094 C 674.902344 110.019531 675.0625 109.761719 675.171875 109.472656 C 675.28125 109.179688 675.328125 108.882812 675.316406 108.570312 C 675.304688 108.261719 675.238281 107.964844 675.109375 107.683594 C 674.980469 107.402344 674.800781 107.15625 674.574219 106.945312 C 674.347656 106.734375 674.089844 106.574219 673.800781 106.464844 C 673.511719 106.355469 673.210938 106.308594 672.902344 106.320312 C 672.59375 106.332031 672.296875 106.398438 672.015625 106.527344 C 671.734375 106.65625 671.488281 106.835938 671.277344 107.0625 C 653.171875 126.566406 637.335938 147.058594 627.511719 160.429688 C 623.746094 155.957031 600.214844 125.46875 627.511719 96.3125 C 636.144531 87.109375 648.425781 79.101562 664.074219 72.453125 C 665.0625 73.542969 666.234375 74.390625 667.582031 74.984375 C 668.929688 75.582031 670.339844 75.875 671.816406 75.871094 C 672.484375 75.867188 673.148438 75.804688 673.808594 75.675781 C 674.464844 75.546875 675.105469 75.355469 675.726562 75.105469 C 676.347656 74.855469 676.941406 74.550781 677.503906 74.1875 C 678.070312 73.824219 678.59375 73.410156 679.078125 72.945312 C 679.5625 72.484375 680 71.980469 680.390625 71.433594 C 680.777344 70.886719 681.113281 70.308594 681.390625 69.699219 C 681.671875 69.089844 681.890625 68.460938 682.050781 67.808594 C 682.210938 67.15625 682.308594 66.496094 682.34375 65.824219 C 694.464844 62.113281 706.800781 59.339844 719.347656 57.511719 C 717.3125 70.90625 708.5625 124.789062 695.839844 143.875 Z M 696.378906 99.289062 C 696.835938 99.289062 697.292969 99.242188 697.746094 99.152344 C 698.199219 99.0625 698.636719 98.929688 699.0625 98.753906 C 699.488281 98.578125 699.894531 98.359375 700.277344 98.105469 C 700.660156 97.847656 701.011719 97.554688 701.339844 97.230469 C 701.664062 96.902344 701.957031 96.550781 702.210938 96.164062 C 702.46875 95.78125 702.683594 95.378906 702.859375 94.953125 C 703.035156 94.523438 703.167969 94.085938 703.257812 93.632812 C 703.347656 93.179688 703.394531 92.722656 703.394531 92.261719 C 703.394531 91.800781 703.347656 91.34375 703.257812 90.890625 C 703.167969 90.441406 703.035156 90 702.859375 89.574219 C 702.683594 89.148438 702.46875 88.742188 702.210938 88.359375 C 701.957031 87.976562 701.664062 87.621094 701.339844 87.296875 C 701.011719 86.96875 700.660156 86.679688 700.277344 86.421875 C 699.894531 86.164062 699.488281 85.949219 699.0625 85.773438 C 698.636719 85.597656 698.199219 85.460938 697.746094 85.371094 C 697.292969 85.28125 696.835938 85.238281 696.378906 85.238281 C 695.917969 85.238281 695.460938 85.28125 695.007812 85.371094 C 694.554688 85.460938 694.117188 85.597656 693.691406 85.773438 C 693.265625 85.949219 692.863281 86.164062 692.476562 86.421875 C 692.09375 86.679688 691.742188 86.96875 691.414062 87.296875 C 691.089844 87.621094 690.796875 87.976562 690.542969 88.359375 C 690.285156 88.742188 690.070312 89.148438 689.894531 89.574219 C 689.71875 90 689.585938 90.441406 689.496094 90.890625 C 689.40625 91.34375 689.359375 91.800781 689.359375 92.261719 C 689.359375 92.722656 689.40625 93.179688 689.496094 93.632812 C 689.589844 94.082031 689.722656 94.523438 689.898438 94.949219 C 690.074219 95.375 690.292969 95.777344 690.546875 96.160156 C 690.804688 96.542969 691.09375 96.898438 691.421875 97.222656 C 691.746094 97.550781 692.101562 97.839844 692.484375 98.097656 C 692.867188 98.355469 693.269531 98.570312 693.695312 98.746094 C 694.121094 98.925781 694.558594 99.058594 695.007812 99.148438 C 695.460938 99.242188 695.917969 99.285156 696.378906 99.289062 Z M 696.378906 89.921875 C 696.6875 89.921875 696.984375 89.980469 697.273438 90.097656 C 697.558594 90.21875 697.8125 90.386719 698.03125 90.605469 C 698.25 90.828125 698.417969 91.078125 698.539062 91.367188 C 698.65625 91.652344 698.714844 91.953125 698.714844 92.261719 C 698.714844 92.574219 698.65625 92.871094 698.539062 93.160156 C 698.417969 93.445312 698.25 93.699219 698.03125 93.917969 C 697.8125 94.136719 697.558594 94.308594 697.273438 94.425781 C 696.984375 94.546875 696.6875 94.605469 696.378906 94.605469 C 696.066406 94.605469 695.769531 94.546875 695.480469 94.425781 C 695.195312 94.308594 694.941406 94.136719 694.722656 93.917969 C 694.503906 93.699219 694.335938 93.445312 694.214844 93.160156 C 694.097656 92.871094 694.039062 92.574219 694.039062 92.261719 C 694.039062 91.953125 694.097656 91.652344 694.21875 91.367188 C 694.335938 91.082031 694.503906 90.828125 694.726562 90.609375 C 694.945312 90.390625 695.195312 90.21875 695.484375 90.101562 C 695.769531 89.980469 696.066406 89.921875 696.378906 89.921875 Z M 689.359375 122.703125 C 689.820312 122.703125 690.277344 122.660156 690.726562 122.570312 C 691.179688 122.480469 691.621094 122.347656 692.046875 122.167969 C 692.46875 121.992188 692.875 121.777344 693.257812 121.519531 C 693.640625 121.265625 693.996094 120.972656 694.320312 120.648438 C 694.648438 120.320312 694.9375 119.964844 695.195312 119.582031 C 695.449219 119.199219 695.667969 118.792969 695.84375 118.367188 C 696.019531 117.941406 696.152344 117.503906 696.242188 117.050781 C 696.332031 116.597656 696.378906 116.140625 696.378906 115.679688 C 696.378906 115.21875 696.332031 114.761719 696.242188 114.308594 C 696.152344 113.855469 696.019531 113.417969 695.84375 112.992188 C 695.667969 112.566406 695.449219 112.160156 695.195312 111.777344 C 694.9375 111.394531 694.648438 111.039062 694.320312 110.710938 C 693.996094 110.386719 693.640625 110.09375 693.257812 109.839844 C 692.875 109.582031 692.46875 109.367188 692.046875 109.1875 C 691.621094 109.011719 691.179688 108.878906 690.726562 108.789062 C 690.277344 108.699219 689.820312 108.65625 689.359375 108.65625 C 688.898438 108.65625 688.441406 108.699219 687.992188 108.789062 C 687.539062 108.878906 687.101562 109.011719 686.675781 109.1875 C 686.25 109.367188 685.84375 109.582031 685.460938 109.839844 C 685.078125 110.09375 684.722656 110.386719 684.398438 110.710938 C 684.070312 111.039062 683.78125 111.394531 683.523438 111.777344 C 683.269531 112.160156 683.050781 112.566406 682.875 112.992188 C 682.699219 113.417969 682.566406 113.855469 682.476562 114.308594 C 682.386719 114.761719 682.34375 115.21875 682.34375 115.679688 C 682.34375 116.140625 682.390625 116.597656 682.480469 117.046875 C 682.570312 117.5 682.703125 117.9375 682.882812 118.363281 C 683.058594 118.789062 683.273438 119.195312 683.53125 119.578125 C 683.785156 119.960938 684.078125 120.316406 684.402344 120.640625 C 684.730469 120.96875 685.082031 121.257812 685.464844 121.515625 C 685.847656 121.769531 686.253906 121.988281 686.675781 122.164062 C 687.101562 122.339844 687.539062 122.476562 687.992188 122.566406 C 688.441406 122.65625 688.898438 122.703125 689.359375 122.703125 Z M 689.359375 113.339844 C 689.667969 113.339844 689.96875 113.398438 690.253906 113.515625 C 690.542969 113.636719 690.792969 113.804688 691.011719 114.023438 C 691.234375 114.242188 691.402344 114.496094 691.519531 114.785156 C 691.640625 115.070312 691.699219 115.367188 691.699219 115.679688 C 691.699219 115.988281 691.640625 116.289062 691.519531 116.574219 C 691.402344 116.863281 691.234375 117.117188 691.011719 117.335938 C 690.792969 117.554688 690.542969 117.722656 690.253906 117.84375 C 689.96875 117.960938 689.667969 118.019531 689.359375 118.019531 C 689.050781 118.019531 688.75 117.960938 688.464844 117.84375 C 688.175781 117.722656 687.925781 117.554688 687.707031 117.335938 C 687.484375 117.117188 687.316406 116.863281 687.199219 116.574219 C 687.078125 116.289062 687.019531 115.988281 687.019531 115.679688 C 687.019531 115.371094 687.082031 115.070312 687.199219 114.785156 C 687.320312 114.5 687.488281 114.246094 687.707031 114.027344 C 687.925781 113.804688 688.179688 113.636719 688.464844 113.519531 C 688.75 113.398438 689.050781 113.339844 689.359375 113.339844 Z M 674.15625 132.070312 C 673.769531 132.070312 673.390625 132.109375 673.015625 132.183594 C 672.636719 132.257812 672.273438 132.371094 671.917969 132.515625 C 671.5625 132.664062 671.226562 132.84375 670.90625 133.058594 C 670.585938 133.273438 670.292969 133.515625 670.019531 133.785156 C 669.75 134.058594 669.503906 134.351562 669.292969 134.671875 C 669.078125 134.992188 668.898438 135.328125 668.753906 135.683594 C 668.605469 136.039062 668.492188 136.40625 668.417969 136.785156 C 668.34375 137.160156 668.308594 137.542969 668.308594 137.925781 C 668.308594 138.308594 668.34375 138.691406 668.417969 139.066406 C 668.492188 139.445312 668.605469 139.8125 668.753906 140.164062 C 668.898438 140.519531 669.078125 140.859375 669.292969 141.179688 C 669.503906 141.496094 669.75 141.792969 670.019531 142.066406 C 670.292969 142.335938 670.585938 142.578125 670.90625 142.792969 C 671.226562 143.007812 671.5625 143.1875 671.917969 143.335938 C 672.273438 143.480469 672.636719 143.59375 673.015625 143.667969 C 673.390625 143.742188 673.769531 143.78125 674.15625 143.78125 C 674.539062 143.78125 674.917969 143.742188 675.296875 143.667969 C 675.671875 143.59375 676.039062 143.480469 676.394531 143.335938 C 676.746094 143.1875 677.085938 143.007812 677.402344 142.792969 C 677.722656 142.578125 678.019531 142.335938 678.289062 142.066406 C 678.5625 141.792969 678.804688 141.496094 679.015625 141.179688 C 679.230469 140.859375 679.410156 140.519531 679.558594 140.164062 C 679.703125 139.8125 679.816406 139.445312 679.890625 139.066406 C 679.964844 138.691406 680.003906 138.308594 680.003906 137.925781 C 680.003906 137.542969 679.964844 137.160156 679.890625 136.785156 C 679.816406 136.40625 679.703125 136.039062 679.558594 135.683594 C 679.410156 135.332031 679.230469 134.992188 679.015625 134.671875 C 678.804688 134.355469 678.5625 134.058594 678.289062 133.785156 C 678.019531 133.515625 677.722656 133.273438 677.402344 133.058594 C 677.085938 132.84375 676.746094 132.664062 676.390625 132.515625 C 676.039062 132.371094 675.671875 132.257812 675.296875 132.183594 C 674.917969 132.109375 674.539062 132.070312 674.15625 132.070312 Z M 674.15625 139.097656 C 674 139.097656 673.851562 139.066406 673.707031 139.007812 C 673.5625 138.949219 673.4375 138.863281 673.328125 138.753906 C 673.21875 138.644531 673.132812 138.515625 673.074219 138.375 C 673.015625 138.230469 672.984375 138.082031 672.984375 137.925781 C 672.984375 137.769531 673.015625 137.621094 673.074219 137.476562 C 673.132812 137.335938 673.21875 137.207031 673.328125 137.097656 C 673.4375 136.988281 673.5625 136.902344 673.707031 136.84375 C 673.851562 136.785156 674 136.753906 674.15625 136.753906 C 674.308594 136.753906 674.460938 136.785156 674.601562 136.84375 C 674.746094 136.902344 674.871094 136.988281 674.980469 137.097656 C 675.089844 137.207031 675.175781 137.335938 675.234375 137.476562 C 675.292969 137.621094 675.324219 137.769531 675.324219 137.925781 C 675.324219 138.082031 675.296875 138.230469 675.238281 138.375 C 675.179688 138.519531 675.09375 138.648438 674.984375 138.757812 C 674.875 138.867188 674.75 138.953125 674.605469 139.011719 C 674.460938 139.070312 674.308594 139.097656 674.15625 139.097656 Z M 662.457031 87.578125 C 662.074219 87.578125 661.695312 87.617188 661.316406 87.691406 C 660.941406 87.765625 660.574219 87.878906 660.222656 88.023438 C 659.867188 88.171875 659.527344 88.351562 659.210938 88.566406 C 658.890625 88.78125 658.59375 89.023438 658.324219 89.292969 C 658.050781 89.566406 657.808594 89.863281 657.597656 90.179688 C 657.382812 90.5 657.203125 90.839844 657.054688 91.195312 C 656.910156 91.546875 656.796875 91.914062 656.722656 92.292969 C 656.648438 92.667969 656.609375 93.050781 656.609375 93.433594 C 656.609375 93.816406 656.648438 94.199219 656.722656 94.574219 C 656.796875 94.953125 656.910156 95.320312 657.054688 95.675781 C 657.203125 96.027344 657.382812 96.367188 657.597656 96.6875 C 657.808594 97.003906 658.050781 97.300781 658.324219 97.574219 C 658.59375 97.84375 658.890625 98.085938 659.210938 98.300781 C 659.527344 98.515625 659.867188 98.695312 660.222656 98.84375 C 660.574219 98.988281 660.941406 99.101562 661.316406 99.175781 C 661.695312 99.25 662.074219 99.289062 662.457031 99.289062 C 662.84375 99.289062 663.222656 99.25 663.601562 99.175781 C 663.976562 99.101562 664.34375 98.988281 664.695312 98.84375 C 665.050781 98.695312 665.386719 98.515625 665.707031 98.300781 C 666.027344 98.085938 666.324219 97.84375 666.59375 97.574219 C 666.867188 97.300781 667.109375 97.003906 667.320312 96.6875 C 667.535156 96.367188 667.714844 96.027344 667.863281 95.675781 C 668.007812 95.320312 668.121094 94.953125 668.195312 94.574219 C 668.269531 94.199219 668.308594 93.816406 668.308594 93.433594 C 668.308594 93.050781 668.269531 92.667969 668.195312 92.292969 C 668.121094 91.914062 668.007812 91.546875 667.859375 91.195312 C 667.714844 90.839844 667.535156 90.5 667.320312 90.183594 C 667.105469 89.863281 666.863281 89.566406 666.59375 89.292969 C 666.320312 89.023438 666.027344 88.78125 665.707031 88.566406 C 665.386719 88.351562 665.050781 88.171875 664.695312 88.027344 C 664.34375 87.878906 663.976562 87.765625 663.601562 87.691406 C 663.222656 87.617188 662.84375 87.578125 662.457031 87.578125 Z M 662.457031 94.605469 C 662.304688 94.605469 662.15625 94.574219 662.011719 94.515625 C 661.867188 94.457031 661.742188 94.371094 661.632812 94.261719 C 661.523438 94.152344 661.4375 94.023438 661.378906 93.882812 C 661.320312 93.738281 661.289062 93.589844 661.289062 93.433594 C 661.289062 93.277344 661.320312 93.128906 661.378906 92.984375 C 661.4375 92.84375 661.523438 92.714844 661.632812 92.605469 C 661.742188 92.496094 661.867188 92.410156 662.011719 92.351562 C 662.15625 92.292969 662.304688 92.261719 662.457031 92.261719 C 662.613281 92.261719 662.761719 92.292969 662.90625 92.351562 C 663.050781 92.410156 663.175781 92.496094 663.285156 92.605469 C 663.394531 92.714844 663.480469 92.84375 663.539062 92.984375 C 663.597656 93.128906 663.628906 93.277344 663.628906 93.433594 C 663.628906 93.589844 663.601562 93.738281 663.542969 93.882812 C 663.484375 94.027344 663.398438 94.15625 663.289062 94.265625 C 663.179688 94.375 663.050781 94.460938 662.910156 94.519531 C 662.765625 94.578125 662.613281 94.605469 662.457031 94.605469 Z M 626.203125 129.730469 C 625.894531 129.730469 625.589844 129.757812 625.289062 129.820312 C 624.988281 129.878906 624.695312 129.96875 624.410156 130.085938 C 624.128906 130.203125 623.859375 130.347656 623.601562 130.519531 C 623.347656 130.691406 623.109375 130.882812 622.894531 131.101562 C 622.675781 131.320312 622.480469 131.554688 622.3125 131.8125 C 622.140625 132.066406 621.996094 132.335938 621.878906 132.621094 C 621.761719 132.90625 621.671875 133.199219 621.613281 133.5 C 621.554688 133.800781 621.523438 134.105469 621.523438 134.414062 C 621.523438 134.71875 621.554688 135.023438 621.613281 135.328125 C 621.671875 135.628906 621.761719 135.921875 621.878906 136.207031 C 621.996094 136.488281 622.140625 136.757812 622.3125 137.015625 C 622.480469 137.269531 622.675781 137.507812 622.894531 137.726562 C 623.109375 137.941406 623.347656 138.136719 623.601562 138.308594 C 623.859375 138.476562 624.128906 138.621094 624.410156 138.738281 C 624.695312 138.859375 624.988281 138.945312 625.289062 139.007812 C 625.589844 139.066406 625.894531 139.097656 626.203125 139.097656 C 626.507812 139.097656 626.8125 139.066406 627.113281 139.007812 C 627.414062 138.945312 627.707031 138.859375 627.992188 138.738281 C 628.277344 138.621094 628.546875 138.476562 628.800781 138.308594 C 629.054688 138.136719 629.292969 137.941406 629.507812 137.726562 C 629.726562 137.507812 629.921875 137.269531 630.089844 137.015625 C 630.261719 136.757812 630.40625 136.488281 630.523438 136.207031 C 630.640625 135.921875 630.730469 135.628906 630.789062 135.328125 C 630.851562 135.023438 630.878906 134.71875 630.878906 134.414062 C 630.878906 134.105469 630.847656 133.800781 630.789062 133.5 C 630.726562 133.199219 630.636719 132.90625 630.519531 132.621094 C 630.402344 132.339844 630.257812 132.070312 630.085938 131.8125 C 629.917969 131.558594 629.722656 131.324219 629.503906 131.105469 C 629.289062 130.886719 629.050781 130.695312 628.796875 130.523438 C 628.542969 130.351562 628.273438 130.207031 627.988281 130.089844 C 627.707031 129.972656 627.414062 129.882812 627.113281 129.820312 C 626.8125 129.761719 626.507812 129.730469 626.203125 129.730469 Z M 640.238281 112.167969 C 640.238281 112.632812 640.148438 113.082031 639.96875 113.511719 C 639.792969 113.941406 639.539062 114.320312 639.210938 114.652344 C 638.878906 114.980469 638.5 115.234375 638.070312 115.414062 C 637.640625 115.589844 637.191406 115.679688 636.726562 115.679688 C 636.261719 115.679688 635.816406 115.589844 635.386719 115.414062 C 634.957031 115.234375 634.574219 114.980469 634.246094 114.652344 C 633.917969 114.320312 633.664062 113.941406 633.484375 113.511719 C 633.308594 113.082031 633.21875 112.632812 633.21875 112.167969 C 633.21875 111.703125 633.308594 111.253906 633.484375 110.824219 C 633.664062 110.390625 633.917969 110.011719 634.246094 109.683594 C 634.574219 109.355469 634.957031 109.101562 635.386719 108.921875 C 635.816406 108.742188 636.261719 108.65625 636.726562 108.65625 C 637.195312 108.652344 637.640625 108.742188 638.070312 108.921875 C 638.5 109.097656 638.882812 109.351562 639.210938 109.683594 C 639.539062 110.011719 639.792969 110.390625 639.972656 110.820312 C 640.148438 111.253906 640.238281 111.699219 640.238281 112.167969 Z M 640.238281 112.167969 "/></g></g></svg>