<svg xmlns="http://www.w3.org/2000/svg" xmlns:xlink="http://www.w3.org/1999/xlink" width="1080" zoomAndPan="magnify" viewBox="0 0 810 525.000007" height="700" preserveAspectRatio="xMidYMid meet" version="1.0"><path fill="#191515" d="M 275.363281 148.660156 C 275.027344 146.753906 272.664062 146.195312 271.183594 146.957031 C 268.703125 148.234375 267.585938 151.097656 266.121094 153.3125 C 264.785156 155.308594 263.300781 157.1875 261.6875 158.949219 C 258.28125 162.675781 254.378906 165.84375 250.050781 168.429688 C 240.789062 173.976562 230.074219 176.089844 219.378906 175.03125 C 218.539062 174.945312 217.71875 174.839844 216.898438 174.710938 C 216.882812 174.34375 216.824219 173.992188 216.722656 173.652344 C 216.308594 172.332031 214.738281 171.554688 213.476562 172.332031 C 212.933594 172.667969 212.449219 173.152344 212.023438 173.695312 C 211.453125 173.566406 210.863281 173.417969 210.292969 173.269531 C 207.152344 172.464844 203.980469 171.347656 200.796875 170.777344 C 198.933594 170.4375 197.40625 172.582031 198.875 174.078125 C 201.589844 176.851562 205.230469 178.703125 209.046875 179.949219 C 208.328125 181.828125 207.621094 183.707031 206.992188 185.628906 C 206.242188 187.886719 205.566406 190.164062 204.9375 192.453125 C 204.246094 194.949219 203.378906 197.515625 203.21875 200.113281 C 203.117188 201.890625 204.671875 203.460938 206.34375 203.648438 C 208.28125 203.886719 209.589844 202.769531 210.308594 201.066406 C 211.171875 198.996094 211.496094 196.589844 212.054688 194.417969 C 212.640625 192.113281 213.273438 189.824219 213.886719 187.535156 C 214.429688 185.539062 214.972656 183.542969 215.546875 181.546875 C 215.695312 181.578125 215.839844 181.605469 215.972656 181.636719 C 222.355469 182.722656 228.738281 182.738281 235.140625 181.695312 C 246.660156 179.816406 257.429688 173.992188 265.578125 165.65625 C 267.808594 163.378906 269.832031 160.886719 271.652344 158.273438 C 273.648438 155.425781 275.980469 152.300781 275.351562 148.660156 Z M 275.363281 148.660156 " fill-opacity="1" fill-rule="nonzero"/><path fill="#191515" d="M 302.339844 119.308594 C 302.132812 119.558594 302.148438 119.542969 302.222656 119.441406 C 302.222656 119.425781 302.25 119.410156 302.265625 119.394531 C 302.296875 119.367188 302.308594 119.335938 302.339844 119.308594 Z M 302.339844 119.308594 " fill-opacity="1" fill-rule="nonzero"/><path fill="#191515" d="M 312.523438 108.859375 C 312.496094 108.710938 312.289062 108.050781 312.214844 107.847656 C 312.1875 107.671875 312.144531 107.390625 312.128906 107.347656 C 311.820312 106.054688 311.144531 105.144531 310.324219 104.148438 C 309.308594 102.929688 306.875 103.53125 306.609375 105.132812 C 306.449219 106.113281 306.214844 107.011719 306.226562 108.007812 C 306.226562 108.242188 306.125 109.242188 306.214844 108.59375 C 306.125 109.269531 306.039062 109.945312 305.992188 110.621094 C 305.992188 110.664062 305.992188 110.679688 305.992188 110.707031 C 305.992188 110.707031 305.992188 110.707031 305.992188 110.722656 C 305.90625 110.941406 305.875 111.191406 305.832031 111.425781 C 305.742188 111.808594 305.683594 112.191406 305.582031 112.558594 C 305.363281 113.453125 305.054688 114.304688 304.746094 115.15625 C 304.644531 115.359375 304.554688 115.550781 304.46875 115.757812 C 304.292969 116.109375 304.113281 116.445312 303.9375 116.800781 C 303.511719 117.621094 303.015625 118.414062 302.484375 119.160156 C 302.457031 119.207031 302.414062 119.265625 302.367188 119.308594 C 302.398438 119.265625 302.425781 119.234375 302.472656 119.175781 C 302.414062 119.25 302.355469 119.324219 302.296875 119.398438 C 302.28125 119.410156 302.265625 119.425781 302.25 119.441406 C 302.207031 119.5 302.148438 119.558594 302.105469 119.617188 C 301.855469 119.910156 301.589844 120.203125 301.3125 120.484375 C 301.003906 120.789062 300.695312 121.097656 300.359375 121.390625 C 300.183594 121.554688 299.992188 121.699219 299.816406 121.847656 C 299.816406 121.847656 299.816406 121.847656 299.785156 121.847656 C 299.140625 122.257812 298.449219 122.714844 297.847656 123.226562 L 294.078125 118.398438 C 292.214844 116.019531 290.304688 113.671875 288.234375 111.457031 C 287.207031 110.355469 286.195312 109.226562 285.09375 108.214844 C 284.449219 107.613281 283.65625 106.894531 282.820312 106.378906 C 282.820312 106.335938 282.851562 106.320312 282.863281 106.277344 C 283.203125 105.042969 283.394531 103.738281 283.613281 102.476562 C 284.066406 99.820312 284.40625 97.117188 284.597656 94.433594 C 284.976562 89.0625 284.785156 83.703125 284.039062 78.363281 C 283.304688 73.226562 281.941406 68.265625 280.28125 63.351562 C 278.578125 58.300781 276.480469 53.488281 273.429688 49.097656 C 272.3125 47.5 269.171875 48.4375 270.007812 50.539062 C 271.84375 55.117188 273.707031 59.753906 275.101562 64.496094 C 276.480469 69.191406 277.242188 74.078125 277.683594 78.933594 C 278.125 83.894531 278.257812 88.898438 277.890625 93.875 C 277.726562 96.148438 277.476562 98.425781 277.097656 100.683594 C 276.890625 101.960938 276.613281 103.222656 276.378906 104.5 C 276.097656 105.996094 276.378906 107.15625 276.511719 108.625 C 276.65625 110.414062 278.386719 111.308594 279.769531 110.695312 C 280.429688 112.117188 281.367188 113.511719 282.042969 114.625 C 283.378906 116.84375 284.832031 118.984375 286.328125 121.097656 C 289.320312 125.3125 292.816406 129.257812 295.589844 133.617188 C 295.472656 133.648438 295.355469 133.675781 295.222656 133.707031 C 292.710938 134.203125 290.203125 134.660156 287.679688 135.144531 L 271.976562 138.136719 C 269.773438 138.5625 268.527344 141.203125 269.082031 143.230469 C 269.714844 145.535156 271.976562 146.546875 274.175781 146.121094 C 280.03125 145.003906 285.902344 143.875 291.757812 142.761719 C 294.296875 142.277344 297.085938 142.027344 299.523438 141.085938 C 302.765625 139.839844 304.847656 136.933594 304.277344 133.382812 C 304.042969 131.914062 303.394531 130.609375 302.601562 129.40625 C 303.6875 128.832031 304.6875 128.011719 305.566406 127.234375 C 308.53125 124.636719 310.792969 121.097656 311.921875 117.328125 C 312.539062 115.257812 312.816406 113.070312 312.730469 110.914062 C 312.699219 110.238281 312.65625 109.535156 312.523438 108.875 Z M 312.523438 108.859375 " fill-opacity="1" fill-rule="nonzero"/><path fill="#191515" d="M 247.378906 106.863281 C 247.113281 105.292969 245.105469 104.28125 243.652344 104.75 C 242.8125 105.015625 242.226562 105.511719 241.875 106.160156 C 241.800781 106.1875 241.714844 106.1875 241.65625 106.230469 C 240.378906 106.953125 239.910156 108.214844 239.46875 109.550781 C 239.292969 110.09375 239.175781 110.664062 239.070312 111.222656 C 239 111.664062 238.941406 112.117188 238.882812 112.570312 C 238.867188 112.71875 238.835938 112.867188 238.824219 113.011719 C 238.882812 112.601562 238.882812 112.617188 238.824219 113.085938 C 238.5 115.523438 238.777344 118.089844 239.410156 120.453125 C 240.070312 122.933594 243.519531 123.316406 244.808594 121.15625 C 247.394531 116.828125 248.199219 111.808594 247.363281 106.878906 Z M 247.378906 106.863281 " fill-opacity="1" fill-rule="nonzero"/><path fill="#191515" d="M 271.285156 114.890625 C 271.210938 113.554688 270.699219 112.570312 270.183594 111.367188 C 269.320312 109.371094 266.414062 109.785156 265.429688 111.367188 C 264.535156 112.792969 264.09375 114.039062 263.828125 115.699219 C 263.550781 117.402344 263.417969 119.117188 263.183594 120.835938 C 262.773438 123.945312 262.113281 127.042969 261.085938 129.992188 C 259.632812 134.160156 256.945312 138.503906 253.117188 140.925781 C 244.648438 146.269531 233.816406 141.160156 228.550781 133.527344 C 226.890625 131.121094 225.496094 128.464844 224.382812 125.75 C 223.207031 122.875 222.339844 119.601562 220.640625 117.003906 C 219.816406 115.757812 217.71875 115.859375 217.335938 117.429688 C 216.589844 120.453125 217.175781 123.988281 217.996094 126.953125 C 218.878906 130.082031 220.140625 133.148438 221.8125 135.949219 C 225.203125 141.617188 230.074219 146.136719 236.210938 148.660156 C 241.992188 151.039062 248.597656 151.316406 254.394531 148.835938 C 260.101562 146.398438 264.621094 141.410156 267.175781 135.789062 C 268.835938 132.148438 269.890625 128.347656 270.507812 124.414062 C 270.84375 122.273438 271.136719 120.101562 271.269531 117.929688 C 271.328125 116.917969 271.34375 115.890625 271.285156 114.890625 Z M 271.285156 114.890625 " fill-opacity="1" fill-rule="nonzero"/><path fill="#191515" d="M 214.945312 111.164062 C 213.742188 108.859375 211.042969 108.242188 208.722656 107.523438 C 206.726562 106.894531 204.730469 106.261719 202.75 105.617188 C 198.480469 104.222656 194.207031 102.8125 189.953125 101.402344 C 181.558594 98.617188 173.132812 95.929688 164.722656 93.171875 C 162.859375 92.554688 161.671875 95.402344 163.390625 96.339844 C 171.3125 100.625 179.472656 104.515625 187.839844 107.859375 C 191.917969 109.492188 196.042969 111.03125 200.210938 112.453125 C 202.382812 113.203125 204.570312 113.921875 206.757812 114.625 C 209.164062 115.40625 211.539062 116.269531 213.933594 114.980469 C 215.296875 114.246094 215.605469 112.46875 214.929688 111.164062 Z M 214.945312 111.164062 " fill-opacity="1" fill-rule="nonzero"/><path fill="#191515" d="M 498.097656 221.6875 C 498.113281 221.761719 498.128906 221.789062 498.128906 221.773438 C 498.128906 221.761719 498.128906 221.746094 498.128906 221.730469 C 498.128906 221.730469 498.128906 221.714844 498.128906 221.703125 Z M 498.097656 221.6875 " fill-opacity="1" fill-rule="nonzero"/><path fill="#191515" d="M 498.070312 221.554688 C 498.070312 221.570312 498.070312 221.597656 498.070312 221.613281 C 498.070312 221.582031 498.070312 221.570312 498.054688 221.539062 Z M 498.070312 221.554688 " fill-opacity="1" fill-rule="nonzero"/><path fill="#191515" d="M 511.261719 191.410156 C 505.746094 186.917969 498.40625 191.585938 493.140625 194.242188 C 487.386719 197.148438 481.824219 200.4375 476.421875 203.945312 C 473.472656 205.867188 470.582031 207.875 467.777344 210.003906 C 466.328125 211.089844 464.875 212.222656 463.566406 213.496094 C 462.304688 214.746094 460.691406 216.199219 460.660156 218.089844 C 460.660156 218.796875 461.203125 219.617188 461.9375 219.765625 C 463.421875 220.058594 464.257812 219.515625 465.535156 218.855469 C 466.75 218.207031 467.898438 217.546875 469.042969 216.785156 C 471.316406 215.273438 473.53125 213.6875 475.808594 212.160156 C 480.445312 209.066406 485.199219 206.1875 490.128906 203.578125 C 492.550781 202.300781 494.972656 201.039062 497.4375 199.847656 C 499.597656 198.808594 501.839844 197.5 504.21875 197.0625 C 504.953125 196.929688 505.554688 196.882812 505.980469 197.089844 C 506.304688 197.25 506.066406 196.957031 506.332031 197.425781 C 506.1875 197.164062 506.539062 198.410156 506.507812 198.03125 C 506.65625 199.894531 505.1875 201.917969 504.058594 203.589844 C 502.574219 205.777344 500.859375 207.773438 498.996094 209.652344 C 496.808594 211.839844 493.945312 213.542969 492.125 216.007812 C 490.070312 218.765625 493.460938 222.65625 496.515625 221.714844 C 496.894531 221.597656 497.277344 221.453125 497.644531 221.277344 C 497.761719 221.347656 497.878906 221.421875 498.011719 221.496094 C 498.054688 221.554688 498.097656 221.613281 498.128906 221.671875 C 498.128906 221.65625 498.128906 221.628906 498.128906 221.613281 L 498.039062 221.511719 C 498.039062 221.511719 498.085938 221.539062 498.113281 221.554688 C 498.085938 221.539062 498.054688 221.511719 498.039062 221.496094 C 498.011719 221.464844 497.996094 221.4375 497.96875 221.40625 C 498.011719 221.4375 498.054688 221.464844 498.113281 221.511719 C 498.085938 221.378906 498.070312 221.289062 498.113281 221.511719 C 498.128906 221.523438 498.144531 221.539062 498.15625 221.570312 C 498.144531 221.570312 498.128906 221.554688 498.113281 221.539062 C 498.113281 221.539062 498.144531 221.554688 498.15625 221.570312 C 498.203125 221.628906 498.230469 221.671875 498.214844 221.730469 C 498.1875 221.6875 498.15625 221.65625 498.128906 221.613281 C 498.128906 221.644531 498.128906 221.644531 498.128906 221.671875 C 498.128906 221.703125 498.128906 221.714844 498.128906 221.730469 C 498.128906 221.789062 498.15625 221.832031 498.15625 221.878906 C 498.15625 221.949219 498.15625 222.039062 498.15625 222.15625 C 498.15625 222.289062 498.15625 222.363281 498.171875 222.421875 C 498.171875 222.421875 498.171875 222.421875 498.171875 222.449219 C 498.085938 222.789062 498.027344 223.140625 497.910156 223.476562 C 497.910156 223.476562 497.71875 224.050781 497.671875 224.210938 C 497.554688 224.476562 497.4375 224.722656 497.320312 224.972656 C 496.707031 226.234375 496.015625 227.453125 495.253906 228.628906 C 494.871094 229.214844 494.472656 229.789062 494.078125 230.359375 C 493.886719 230.625 493.695312 230.875 493.503906 231.125 C 493.476562 231.152344 493.433594 231.195312 493.386719 231.269531 C 492.492188 232.339844 491.570312 233.382812 490.554688 234.367188 C 490.101562 234.808594 489.632812 235.246094 489.160156 235.65625 C 488.867188 235.90625 488.589844 236.15625 488.296875 236.40625 C 488.25 236.4375 487.929688 236.683594 487.78125 236.816406 C 486.519531 237.726562 485.125 238.503906 483.996094 239.5625 C 482.632812 240.824219 482.292969 243.289062 483.304688 244.859375 C 483.921875 245.800781 484.933594 246.589844 486.050781 246.914062 C 486.078125 246.988281 486.09375 247.074219 486.125 247.148438 C 486.152344 247.265625 486.226562 247.824219 486.269531 247.914062 C 486.226562 249.4375 485.050781 251.023438 484.070312 252.417969 C 481.839844 255.601562 479.109375 258.65625 476.128906 261.472656 C 473.136719 264.289062 470.289062 266.492188 466.796875 268.679688 C 465.050781 269.777344 463.246094 270.792969 461.394531 271.730469 C 460.46875 272.199219 459.53125 272.640625 458.59375 273.066406 C 457.742188 273.449219 456.523438 273.757812 455.570312 274.488281 C 454.058594 275.648438 453.089844 277.292969 453.632812 279.257812 C 454.101562 280.949219 455.878906 282.519531 457.710938 282.371094 C 460.617188 282.121094 463.480469 280.507812 466.0625 279.199219 C 468.21875 278.101562 470.304688 276.898438 472.328125 275.574219 C 476.671875 272.730469 480.753906 269.414062 484.378906 265.699219 C 488.074219 261.898438 492.082031 257.464844 494.019531 252.445312 C 495.074219 249.730469 495.222656 246.546875 493.742188 243.949219 C 493.667969 243.832031 493.59375 243.714844 493.519531 243.597656 C 493.683594 243.464844 493.859375 243.332031 494.019531 243.214844 C 495.414062 242.117188 496.734375 240.910156 497.96875 239.621094 C 500.492188 236.949219 502.722656 233.941406 504.410156 230.667969 C 506.464844 226.691406 508.300781 221.644531 505.644531 217.476562 C 505.277344 216.902344 504.820312 216.386719 504.308594 215.933594 C 504.335938 215.90625 504.378906 215.859375 504.410156 215.832031 C 506.640625 213.613281 508.652344 211.164062 510.457031 208.582031 C 512.289062 205.96875 513.992188 203.152344 514.390625 199.921875 C 514.769531 196.796875 513.773438 193.4375 511.277344 191.410156 Z M 511.261719 191.410156 " fill-opacity="1" fill-rule="nonzero"/><path fill="#191515" d="M 489.824219 104.617188 C 489.46875 103.632812 488.664062 102.8125 487.648438 102.5625 C 485.773438 102.09375 484.203125 102.019531 482.277344 102.136719 C 480.5625 102.242188 478.832031 102.359375 477.113281 102.460938 L 466.765625 103.105469 C 463.433594 103.3125 460.105469 103.515625 456.773438 103.738281 C 457.066406 102.078125 457.34375 100.421875 457.625 98.761719 C 458.269531 94.828125 458.855469 90.867188 459.382812 86.917969 C 459.632812 85.039062 459.855469 83.175781 459.941406 81.285156 C 459.988281 80.109375 460.03125 78.773438 459.839844 77.542969 C 459.898438 77.410156 459.972656 77.277344 460.015625 77.144531 C 460.71875 74.972656 459.355469 72.566406 458.152344 70.789062 C 457.09375 69.25 455.878906 67.796875 454.425781 66.609375 C 451.253906 64.011719 447.660156 62.542969 443.5625 62.234375 C 439.894531 61.957031 435.890625 62.953125 432.777344 64.90625 C 431.179688 65.917969 429.667969 67.222656 428.449219 68.675781 C 427.949219 69.265625 427.390625 70.054688 426.953125 70.894531 C 425.511719 72.347656 425.394531 74.828125 424.96875 76.835938 C 424.441406 79.359375 423.914062 81.886719 423.371094 84.425781 C 422.269531 89.691406 421.15625 94.960938 420.054688 100.230469 C 419.585938 102.445312 419.144531 104.675781 418.6875 106.90625 C 414.449219 107.496094 410.207031 108.183594 405.980469 108.875 C 405.640625 108.742188 405.289062 108.652344 404.921875 108.652344 C 404.527344 108.640625 404.160156 108.726562 403.820312 108.902344 C 403.46875 109.019531 403.160156 109.210938 402.898438 109.492188 C 402.617188 109.753906 402.414062 110.0625 402.3125 110.414062 C 402.132812 110.753906 402.046875 111.121094 402.0625 111.515625 C 402.089844 111.765625 402.132812 112.027344 402.164062 112.277344 C 402.238281 112.574219 402.371094 112.820312 402.53125 113.070312 C 401.722656 115.023438 401.152344 117.078125 400.519531 119.074219 C 399.523438 122.273438 398.628906 125.488281 397.730469 128.730469 C 395.957031 135.1875 394.238281 141.660156 392.566406 148.144531 C 389.21875 161.121094 385.828125 174.078125 382.585938 187.066406 L 379.914062 197.75 C 379.445312 199.644531 378.960938 201.523438 378.492188 203.414062 C 378.492188 203.429688 378.492188 203.460938 378.492188 203.472656 C 377.597656 203.605469 376.773438 204.164062 376.511719 205.21875 C 376.085938 206.894531 375.425781 208.566406 375.132812 210.269531 C 374.835938 212 374.53125 213.71875 374.28125 215.464844 C 374.058594 216.902344 374.425781 218.324219 375.761719 219.105469 C 376.996094 219.824219 378.652344 219.601562 379.679688 218.605469 C 385.242188 213.101562 390.820312 207.582031 396.382812 202.078125 C 401.722656 196.796875 406.949219 191.324219 412.480469 186.246094 C 414.519531 184.367188 416.605469 182.765625 419.464844 182.738281 C 421.535156 182.738281 422.988281 183.882812 423.269531 185.90625 C 423.269531 185.980469 423.269531 186.113281 423.269531 186.363281 C 423.269531 186.640625 423.269531 186.917969 423.238281 187.199219 C 423.238281 187.285156 423.195312 187.640625 423.195312 187.652344 C 423.121094 188.050781 423.019531 188.445312 422.914062 188.84375 C 422.519531 190.222656 421.933594 191.277344 421.09375 192.6875 C 419.347656 195.636719 417.441406 198.453125 416.355469 201.726562 C 414.09375 208.566406 416.164062 215.933594 418.320312 222.507812 C 419.363281 225.707031 420.449219 228.921875 421.082031 232.238281 C 421.550781 234.660156 421.742188 237.816406 421.59375 240.765625 C 421.332031 246.105469 419.613281 252.519531 417.28125 257.421875 C 414.492188 263.292969 411.085938 268.078125 406.683594 272.566406 C 396.675781 282.796875 383.335938 289.648438 370.171875 294.609375 C 367.765625 295.519531 366.121094 297.824219 366.855469 300.453125 C 366.882812 300.570312 366.957031 300.6875 367 300.804688 C 363.214844 304.136719 359.839844 307.9375 356.316406 311.546875 C 352.765625 315.1875 349.183594 318.796875 345.542969 322.347656 C 343.386719 324.445312 341.199219 326.515625 339 328.570312 C 338.414062 327.265625 337.605469 325.988281 336.945312 324.726562 C 335.757812 322.449219 334.597656 320.144531 333.480469 317.828125 C 331.222656 313.132812 329.179688 308.507812 327.304688 303.722656 C 325.335938 298.75 323.53125 293.699219 321.871094 288.621094 C 321.066406 286.171875 320.332031 283.707031 319.539062 281.253906 C 319.203125 280.214844 318.878906 279.011719 318.484375 277.820312 C 319.4375 277.367188 320.40625 276.925781 321.359375 276.472656 C 325 274.710938 328.59375 272.890625 332.160156 271.011719 C 335.816406 269.074219 339.777344 267.386719 342.390625 264.085938 C 342.566406 263.863281 342.699219 263.644531 342.816406 263.4375 C 343.621094 263.761719 344.5625 263.6875 345.132812 262.953125 C 346.792969 260.828125 347.234375 258.199219 347.894531 255.632812 C 348.523438 253.167969 349.214844 250.730469 349.84375 248.265625 C 351.136719 243.261719 352.574219 238.269531 354.320312 233.414062 C 357.300781 225.136719 361.453125 216.992188 367.339844 210.371094 C 368.921875 208.582031 370.640625 206.90625 372.445312 205.351562 C 373.324219 204.605469 374.222656 203.886719 375.160156 203.222656 C 376.378906 202.359375 377.859375 201.667969 378.519531 200.261719 C 379.535156 198.101562 378.34375 195.371094 375.71875 195.386719 C 373.148438 195.386719 370.773438 197.75 368.878906 199.304688 C 367.164062 200.714844 365.546875 202.242188 364.035156 203.855469 C 360.777344 207.320312 357.902344 211.148438 355.4375 215.199219 C 350.136719 223.917969 346.675781 233.707031 344.222656 243.582031 C 343.488281 246.546875 342.859375 249.527344 342.316406 252.535156 C 341.964844 254.53125 341.347656 256.71875 341.199219 258.84375 C 340.628906 258.625 339.953125 258.523438 339.203125 258.625 C 335.578125 259.125 332.601562 261.0625 329.429688 262.765625 C 326.320312 264.4375 323.179688 266.050781 320.007812 267.621094 C 318.042969 268.589844 316.074219 269.542969 314.09375 270.484375 C 314.183594 270.101562 314.183594 269.675781 314.019531 269.222656 C 313.535156 267.785156 313.40625 266.285156 312.847656 264.832031 C 312.289062 263.367188 311.511719 262.105469 310.632812 260.8125 C 309.074219 258.507812 307.460938 256.21875 305.847656 253.957031 C 302.398438 249.144531 298.847656 244.40625 295.117188 239.796875 C 291.507812 235.320312 287.765625 230.917969 283.789062 226.765625 C 281.867188 224.753906 279.898438 222.800781 277.875 220.878906 C 276.816406 219.882812 275.820312 218.898438 274.660156 218.03125 C 273.605469 217.226562 272.371094 216.109375 270.960938 216.199219 C 263.214844 207.261719 254.144531 199.410156 244.019531 193.363281 C 239.996094 190.957031 235.785156 188.886719 231.425781 187.15625 C 227.375 185.539062 222.503906 183.105469 218.042969 183.441406 C 216.046875 183.601562 214.402344 186.257812 216.238281 187.800781 C 219.257812 190.339844 223.324219 191.453125 226.816406 193.246094 C 227.59375 193.640625 228.34375 194.066406 229.121094 194.476562 C 226.890625 195.914062 226.757812 198.984375 226.332031 201.417969 C 225.863281 204.132812 225.570312 206.894531 225.261719 209.636719 C 224.835938 213.484375 224.441406 217.34375 224.058594 221.1875 C 223.867188 221.027344 223.691406 220.851562 223.5 220.6875 C 221.796875 219.191406 220.109375 217.652344 218.378906 216.183594 C 217.996094 215.859375 217.601562 215.539062 217.203125 215.214844 C 216.957031 215.007812 216.722656 214.804688 216.472656 214.613281 C 216.296875 214.464844 216.105469 214.320312 215.929688 214.1875 C 215.695312 214.011719 215.5625 213.910156 215.53125 213.878906 C 215.371094 213.746094 215.164062 213.585938 215.136719 213.554688 C 214.945312 213.394531 214.738281 213.234375 214.546875 213.070312 C 214.109375 212.703125 213.667969 212.339844 213.226562 211.984375 C 212.230469 211.195312 211.144531 210.34375 210.027344 209.710938 C 208.679688 208.960938 207.535156 208.113281 205.890625 208.507812 C 205.140625 208.683594 204.277344 209.433594 204.160156 210.238281 C 204.054688 210.972656 204.054688 211.558594 204.261719 212.191406 C 204.1875 212.222656 204.113281 212.265625 204.039062 212.292969 C 202.925781 211.324219 201.28125 210.957031 200.003906 211.914062 C 199.886719 212 199.785156 212.089844 199.683594 212.175781 C 199.683594 212.074219 199.710938 211.972656 199.710938 211.867188 C 199.667969 208.773438 196.851562 207.261719 194.664062 205.542969 C 192.8125 204.105469 190.992188 202.621094 189.1875 201.140625 C 185.503906 198.089844 181.9375 194.917969 178.460938 191.617188 C 175.070312 188.386719 171.785156 185.054688 168.539062 181.679688 C 165.472656 178.511719 162.539062 175.121094 159.105469 172.359375 C 159.175781 171.863281 159.265625 171.363281 159.351562 170.863281 C 159.75 168.632812 160.175781 166.402344 160.511719 164.15625 C 160.835938 162 161.128906 159.828125 161.421875 157.671875 C 161.582031 156.453125 161.789062 155.25 161.832031 154.015625 C 161.832031 153.972656 161.832031 153.929688 161.832031 153.882812 C 162.597656 153.503906 163.125 152.972656 163.667969 152.226562 C 164.546875 150.992188 164.34375 149.1875 163.667969 147.941406 C 162.730469 146.210938 161.480469 144.640625 160.484375 142.921875 C 159.527344 141.261719 158.621094 139.5625 157.8125 137.828125 C 157.636719 137.433594 157.445312 137.050781 157.285156 136.65625 C 157.195312 136.464844 157.121094 136.273438 157.035156 136.066406 C 157.019531 136.023438 156.992188 135.964844 156.960938 135.890625 C 156.519531 134.777344 156.09375 133.648438 155.640625 132.546875 C 155.890625 133.164062 155.375 131.839844 155.332031 131.722656 C 155.273438 131.5625 155.199219 131.402344 155.140625 131.238281 C 155.726562 130.066406 155.523438 128.613281 154.039062 127.71875 C 151.164062 125.984375 148.140625 125.03125 145 123.960938 C 142.050781 122.949219 139.246094 121.65625 136.589844 120.027344 C 131.703125 117.046875 127.582031 113.085938 124.9375 107.949219 C 120.625 99.597656 123.207031 86.507812 133.15625 83.527344 C 135.5625 82.808594 138.089844 82.617188 140.554688 83.191406 C 141.84375 83.5 143.105469 83.925781 144.296875 84.496094 C 145.601562 85.128906 146.878906 85.890625 148.289062 86.183594 C 149.300781 86.390625 150.605469 85.699219 150.503906 84.496094 C 150.226562 81.34375 147.449219 79.066406 144.691406 77.835938 C 141.785156 76.542969 138.46875 76.015625 135.285156 76.292969 C 128.519531 76.910156 122.707031 80.84375 119.316406 86.699219 C 112.007812 99.335938 117.628906 115.167969 128.371094 123.886719 C 131.835938 126.691406 135.609375 128.804688 139.71875 130.507812 C 142.503906 131.664062 145.324219 132.664062 148.242188 133.015625 C 148.289062 133.28125 148.332031 133.542969 148.375 133.808594 C 148.417969 134.042969 148.433594 134.308594 148.507812 134.542969 C 148.550781 134.777344 148.550781 134.792969 148.539062 134.585938 C 148.507812 134.277344 148.539062 134.394531 148.597656 134.953125 C 148.875 137.035156 149.695312 139.148438 150.445312 141.117188 C 151.238281 143.1875 152.132812 145.210938 153.175781 147.175781 C 153.910156 148.542969 154.6875 149.9375 155.582031 151.226562 C 155.582031 151.226562 155.582031 151.257812 155.566406 151.273438 C 155.40625 151.785156 155.300781 152.328125 155.140625 152.84375 C 154.816406 153.882812 154.539062 154.910156 154.289062 155.984375 C 153.792969 158.183594 153.261719 160.386719 152.808594 162.585938 C 152.441406 164.363281 152.042969 166.167969 151.675781 167.988281 C 151.207031 168.179688 150.738281 168.382812 150.285156 168.664062 C 150.226562 168.707031 149.800781 169 149.742188 169.058594 C 149.375 169.25 148.976562 169.367188 148.625 169.601562 C 148.097656 169.953125 147.597656 170.335938 147.097656 170.71875 C 144.972656 172.316406 142.960938 174.109375 141.097656 176.015625 C 139.21875 177.9375 137.53125 180.023438 135.902344 182.164062 C 134.816406 183.574219 133.597656 185.054688 132.761719 186.683594 C 130.367188 187.273438 128.09375 188.136719 125.730469 189.136719 C 122.328125 190.558594 118.980469 192.101562 115.738281 193.847656 C 109.558594 197.164062 103.71875 201.183594 98.523438 205.894531 C 87.484375 215.90625 80.367188 229.375 77.636719 243.980469 C 74.6875 259.800781 76.097656 275.882812 79.046875 291.601562 C 82.113281 307.921875 87.238281 323.800781 93.253906 339.253906 C 96.6875 348.058594 100.429688 356.734375 104.320312 365.347656 C 106.226562 369.574219 108.148438 373.785156 110.128906 377.96875 C 111.15625 380.140625 112.183594 382.328125 113.285156 384.46875 C 114.003906 385.863281 114.855469 387.125 115.78125 388.359375 C 115.707031 389.914062 115.574219 391.367188 115.75 392.953125 C 115.972656 394.859375 116.265625 396.738281 116.589844 398.632812 C 117.175781 402.167969 117.628906 405.734375 118.261719 409.257812 C 119.507812 416.300781 120.757812 423.347656 122.121094 430.363281 C 124.835938 444.390625 127.667969 458.390625 130.472656 472.40625 C 131.996094 480.039062 133.539062 487.683594 135.109375 495.316406 C 135.285156 497.738281 137.851562 499.453125 140.140625 499.148438 C 140.832031 499.058594 141.449219 498.824219 141.960938 498.484375 C 145.675781 501.113281 149.683594 503.269531 153.863281 505.238281 C 159.910156 508.085938 166.148438 510.476562 172.488281 512.558594 C 185.125 516.699219 198.242188 519.3125 211.453125 520.777344 C 237.472656 523.683594 264.226562 521.453125 289.351562 514.101562 C 296.558594 511.988281 303.617188 509.433594 310.527344 506.515625 C 313.917969 505.074219 317.292969 503.59375 320.566406 501.875 C 324.089844 500.042969 327.65625 498.308594 329.652344 494.714844 C 330.765625 492.71875 329.355469 490.339844 327.097656 490.269531 C 323.5 490.152344 320.539062 491.765625 317.367188 493.277344 C 314.445312 494.683594 311.496094 496.078125 308.53125 497.386719 C 303.25 499.71875 297.085938 502.023438 291.1875 503.917969 C 285.167969 505.839844 279.046875 507.46875 272.886719 508.789062 C 269.789062 509.449219 266.691406 510.050781 263.566406 510.5625 C 260.308594 511.105469 257.972656 511.429688 254.847656 511.78125 C 229.488281 514.660156 204.1875 512.675781 179.8125 505.722656 C 172.871094 503.738281 166.164062 501.273438 159.425781 498.722656 C 154.128906 496.710938 148.960938 494.40625 143.621094 492.5 C 138.101562 464.847656 132.554688 437.1875 126.289062 409.699219 C 125.421875 405.910156 124.527344 402.109375 123.515625 398.367188 C 123 396.488281 122.621094 394.582031 122.078125 392.71875 C 121.914062 392.175781 121.738281 391.660156 121.546875 391.148438 C 121.578125 391.132812 121.605469 391.117188 121.636719 391.105469 C 123 390.3125 123.472656 388.769531 123.191406 387.289062 C 122.386719 383.089844 120.710938 379.421875 118.9375 375.546875 C 117.261719 371.878906 115.5625 368.238281 113.886719 364.570312 C 110.585938 357.320312 107.371094 350.039062 104.332031 342.671875 C 98.230469 327.851562 92.972656 312.707031 89.21875 297.121094 C 82.714844 270.21875 78.695312 236.597656 99.285156 214.453125 C 104.363281 208.976562 110.351562 204.5 116.792969 200.773438 C 120.035156 198.894531 123.367188 197.191406 126.773438 195.667969 C 129.078125 194.625 131.441406 193.757812 133.730469 192.703125 C 134.535156 193.054688 135.460938 193.128906 136.253906 192.820312 C 136.53125 193.859375 136.882812 194.886719 137.222656 195.914062 C 138.058594 198.382812 139.070312 200.757812 140.113281 203.136719 C 142.183594 207.863281 144.664062 212.441406 147.261719 216.902344 C 152.457031 225.839844 158.488281 234.234375 165.078125 242.171875 C 168.746094 246.605469 172.5625 251.183594 176.90625 254.972656 C 177.960938 255.882812 179.5625 256.453125 180.984375 256.085938 C 182.304688 256.085938 183.480469 255.207031 183.890625 254.003906 C 184.859375 252.945312 185.609375 251.507812 186.34375 250.347656 C 187.371094 248.71875 188.394531 247.074219 189.378906 245.402344 C 191.300781 242.171875 193.226562 238.929688 195.042969 235.65625 C 196.820312 232.472656 198.582031 229.273438 200.296875 226.046875 C 201.207031 224.328125 202.105469 222.625 203.011719 220.910156 C 203.160156 220.613281 203.320312 220.335938 203.484375 220.058594 C 203.496094 220.117188 203.511719 220.175781 203.542969 220.234375 C 203.996094 221.582031 204.421875 222.933594 204.878906 224.269531 C 205.816406 227.074219 206.785156 229.847656 207.621094 232.679688 C 208.429688 235.410156 209.175781 238.167969 209.851562 240.941406 C 210.601562 244.007812 210.792969 247.792969 212.933594 250.214844 C 215.222656 252.800781 219.15625 251.183594 220.140625 248.308594 C 220.785156 246.429688 220.199219 244.507812 219.773438 242.644531 C 219.4375 241.160156 219.070312 239.664062 218.6875 238.195312 C 217.96875 235.4375 217.144531 232.707031 216.25 229.992188 C 215.472656 227.660156 214.621094 225.355469 213.710938 223.066406 C 214.914062 224.226562 216.132812 225.371094 217.335938 226.53125 C 218.160156 227.308594 218.996094 228.085938 219.832031 228.847656 C 221.007812 229.917969 222.238281 231.34375 223.867188 231.59375 C 225.320312 231.828125 226.65625 231.652344 227.742188 230.566406 C 228.136719 230.167969 228.402344 229.699219 228.59375 229.199219 C 230.324219 228.761719 231.398438 227.175781 231.574219 225.355469 C 232.085938 220.117188 232.496094 214.863281 232.894531 209.621094 C 233.085938 206.996094 233.273438 204.382812 233.304688 201.757812 C 233.304688 200.539062 233.332031 199.351562 233.230469 198.132812 C 233.1875 197.558594 233.097656 197.074219 232.980469 196.636719 C 234.359375 197.425781 235.726562 198.21875 237.074219 199.054688 C 243.929688 203.296875 249.652344 207.507812 255.507812 212.882812 C 267.058594 223.476562 275.953125 235.804688 282.320312 250.261719 C 283.789062 253.589844 285.417969 258.082031 286.621094 262.101562 C 287.253906 264.230469 287.808594 266.375 288.308594 268.53125 C 288.941406 271.261719 289.703125 273.375 292.007812 275.121094 C 293.359375 276.148438 295.367188 275.269531 296.175781 274.035156 C 298.625 270.261719 296.5 264.90625 295.367188 260.929688 C 294.265625 257.054688 292.945312 253.238281 291.421875 249.511719 C 291.082031 248.675781 290.730469 247.851562 290.363281 247.015625 C 293.152344 250.699219 295.925781 254.398438 298.613281 258.15625 C 300.226562 260.429688 301.8125 262.71875 303.382812 265.023438 C 304.964844 267.359375 306.785156 269.867188 309.355469 271.1875 C 309.53125 271.335938 309.707031 271.464844 309.867188 271.628906 C 310.101562 271.847656 310.367188 271.996094 310.644531 272.097656 C 307.609375 273.492188 304.539062 274.84375 301.457031 276.148438 C 288.691406 281.550781 275.527344 286.332031 262.113281 289.882812 C 249.152344 293.320312 235.828125 294.84375 222.753906 291.515625 C 210.5 288.386719 199.226562 282.019531 189.1875 274.445312 C 183.230469 269.941406 177.710938 264.90625 172.296875 259.769531 C 166.75 254.515625 161.421875 248.867188 155.257812 244.332031 C 153.835938 243.273438 152.074219 245.285156 152.910156 246.679688 C 156.507812 252.652344 161.230469 258.066406 165.914062 263.203125 C 170.625 268.371094 175.613281 273.332031 180.925781 277.878906 C 191.242188 286.683594 202.71875 294.023438 215.679688 298.277344 C 229.53125 302.828125 243.886719 302.667969 258.03125 299.628906 C 272.019531 296.621094 285.710938 291.691406 298.949219 286.363281 C 302.910156 284.761719 306.84375 283.105469 310.75 281.371094 C 310.925781 282.152344 311.101562 282.882812 311.246094 283.558594 C 311.835938 286.273438 312.566406 288.945312 313.332031 291.617188 C 314.8125 296.753906 316.488281 301.832031 318.363281 306.835938 C 320.316406 312.046875 322.460938 317.179688 324.765625 322.246094 C 325.910156 324.769531 327.113281 327.277344 328.34375 329.757812 C 328.960938 330.992188 329.546875 332.269531 330.238281 333.457031 C 330.648438 334.160156 331.117188 334.734375 331.648438 335.203125 C 328.828125 337.683594 325.980469 340.148438 323.074219 342.527344 C 307.929688 354.898438 291.066406 365.730469 272.78125 372.566406 C 254.714844 379.320312 235.066406 382.695312 216.105469 380.050781 C 196.921875 377.382812 179.503906 368.488281 164.3125 356.675781 C 156.242188 350.394531 148.84375 343.320312 141.742188 335.980469 C 138.042969 332.164062 134.359375 328.292969 130.867188 324.300781 C 127.390625 320.320312 123.867188 316.226562 120.050781 312.589844 C 118.171875 310.796875 116.410156 308.859375 114.652344 306.96875 C 113.09375 305.308594 110.117188 307.511719 111.453125 309.433594 C 114.519531 313.863281 117.378906 318.414062 120.636719 322.730469 C 123.96875 327.144531 127.359375 331.519531 130.941406 335.730469 C 137.867188 343.890625 145.191406 351.714844 153.292969 358.742188 C 168.585938 372.011719 186.429688 382.8125 206.359375 387.273438 C 226.554688 391.792969 247.761719 389.929688 267.410156 383.824219 C 282.835938 379.039062 297.261719 371.703125 310.660156 362.777344 C 311.246094 365.304688 311.894531 367.828125 312.496094 370.351562 C 313.773438 375.636719 315.078125 380.902344 316.265625 386.203125 C 318.644531 396.898438 320.667969 407.703125 322.296875 418.546875 C 322.738281 421.453125 323.148438 424.359375 323.515625 427.277344 C 323.707031 428.730469 323.882812 430.183594 324.042969 431.636719 C 324.191406 432.855469 324.265625 434.042969 324.808594 435.160156 C 325.101562 435.792969 325.496094 436.320312 325.9375 436.863281 C 325.96875 437.582031 326.011719 438.316406 326.097656 439.019531 C 326.335938 440.722656 326.4375 442.425781 326.640625 444.140625 C 327.097656 447.929688 327.597656 451.714844 327.917969 455.53125 C 328.226562 459.242188 328.417969 462.972656 328.476562 466.683594 C 328.507812 468.546875 328.507812 470.410156 328.476562 472.273438 C 328.433594 474.433594 328.183594 476.589844 328.609375 478.71875 C 329.503906 483.164062 335.886719 482.621094 337.089844 478.71875 C 337.707031 476.691406 337.5625 474.375 337.574219 472.273438 C 337.589844 470.410156 337.574219 468.546875 337.53125 466.683594 C 337.429688 462.75 337.148438 458.816406 336.710938 454.914062 C 336.269531 450.953125 335.742188 446.929688 334.859375 443.042969 C 334.449219 441.222656 333.90625 439.445312 333.363281 437.667969 C 333.144531 436.964844 332.863281 436.304688 332.570312 435.628906 C 333.054688 434.46875 333.289062 433.28125 333.144531 431.960938 C 332.96875 430.507812 332.792969 429.054688 332.601562 427.601562 C 332.234375 424.710938 331.835938 421.835938 331.410156 418.957031 C 330.589844 413.382812 329.664062 407.820312 328.636719 402.273438 C 326.613281 391.398438 324.03125 380.609375 321.019531 369.96875 C 320.742188 368.972656 320.433594 367.988281 320.140625 366.992188 C 321.753906 367.785156 323.457031 368.414062 325.101562 368.957031 C 329.34375 370.367188 333.730469 371.101562 338.191406 371.277344 C 347.070312 371.628906 356.082031 369.925781 364.375 366.742188 C 381.910156 360.003906 395.734375 347.03125 407.199219 332.445312 C 410.542969 328.1875 413.742188 323.816406 416.839844 319.382812 C 418.351562 317.210938 419.996094 315.054688 421.226562 312.707031 C 422.402344 310.476562 423.988281 307.523438 423.75 304.957031 C 423.707031 304.414062 423.472656 303.898438 423.136719 303.503906 C 425.234375 303.0625 427.316406 302.636719 429.417969 302.210938 L 438.355469 300.390625 C 441.363281 299.777344 445.046875 299.613281 447.453125 297.589844 C 449.550781 295.828125 448.246094 292.453125 445.914062 291.75 C 444.164062 291.21875 442.492188 291.703125 440.777344 292.070312 C 439.292969 292.378906 437.796875 292.6875 436.3125 293.011719 C 433.335938 293.628906 430.371094 294.257812 427.390625 294.875 C 421.449219 296.121094 415.488281 297.296875 409.558594 298.617188 C 403.632812 299.9375 397.730469 301.289062 391.863281 302.859375 C 388.925781 303.636719 386.003906 304.429688 383.101562 305.265625 C 380.53125 306 377.054688 306.378906 374.984375 308.171875 C 374.015625 309.023438 374.617188 310.535156 375.703125 310.886719 C 377.066406 311.324219 378.550781 311.03125 379.960938 310.855469 C 381.457031 310.679688 382.9375 310.417969 384.421875 310.238281 C 387.472656 309.859375 390.511719 309.417969 393.550781 308.964844 C 399.582031 308.066406 405.570312 306.953125 411.554688 305.835938 C 413.726562 305.425781 415.898438 304.984375 418.074219 304.546875 C 417.25 305.234375 416.488281 306.011719 415.769531 306.792969 C 414.023438 308.65625 412.628906 310.8125 411.175781 312.894531 C 408.664062 316.535156 406.113281 320.132812 403.441406 323.652344 C 398.171875 330.640625 392.40625 337.316406 385.933594 343.230469 C 373.796875 354.324219 358.546875 362.265625 342.226562 363.042969 C 337.898438 363.25 333.378906 362.96875 329.296875 362.191406 C 325.320312 361.429688 321.476562 359.652344 317.5 359.023438 C 317.410156 358.757812 317.324219 358.507812 317.21875 358.257812 C 318.746094 357.160156 320.257812 356.042969 321.753906 354.898438 C 338.382812 342.234375 353.351562 327.628906 367.777344 312.542969 C 369.582031 310.652344 371.300781 308.773438 372.914062 306.71875 C 373.707031 305.707031 374.148438 304.472656 374.058594 303.285156 C 387.195312 298.191406 399.949219 291.703125 410.382812 282.09375 C 420.964844 272.332031 428.460938 259.300781 430.296875 244.933594 C 431.207031 237.875 430.414062 230.785156 428.125 224.050781 C 425.984375 217.738281 422.242188 210.621094 424.382812 204.015625 C 425.367188 201.007812 427.554688 198.367188 429.035156 195.535156 C 430.738281 192.261719 431.792969 188.636719 431.308594 184.9375 C 430.824219 181.226562 428.726562 177.953125 425.234375 176.398438 C 421.84375 174.898438 418.042969 175.53125 414.742188 176.925781 C 410.96875 178.523438 408.078125 181.296875 405.214844 184.144531 C 401.871094 187.476562 398.523438 190.808594 395.179688 194.140625 C 392.449219 196.855469 389.703125 199.570312 386.960938 202.285156 C 387.0625 201.769531 387.164062 201.285156 387.269531 200.847656 L 389.703125 191.101562 C 391.304688 184.703125 392.875 178.304688 394.414062 171.90625 C 397.539062 158.992188 400.710938 146.078125 403.675781 133.117188 C 404.496094 129.539062 405.320312 125.957031 406.039062 122.347656 C 406.640625 119.265625 407.445312 116.019531 407.519531 112.835938 C 410.835938 112.953125 414.140625 113.070312 417.457031 113.128906 C 417.265625 114.128906 417.058594 115.125 416.855469 116.136719 C 416.355469 118.675781 415.839844 121.214844 415.417969 123.769531 C 415.195312 125.046875 415.003906 126.324219 414.828125 127.613281 C 414.625 129.066406 414.332031 130.269531 415.050781 131.605469 C 415.621094 132.648438 416.882812 132.589844 417.691406 131.945312 C 418.761719 131.109375 418.96875 129.785156 419.320312 128.523438 C 419.671875 127.277344 419.980469 126.03125 420.304688 124.78125 C 420.964844 122.167969 421.519531 119.542969 422.109375 116.914062 C 422.386719 115.652344 422.664062 114.40625 422.945312 113.144531 C 424.191406 113.144531 425.441406 113.113281 426.6875 113.070312 C 427.933594 113.027344 429.167969 112.953125 430.414062 112.910156 C 430.210938 113.953125 430.003906 114.980469 429.828125 116.019531 C 429.460938 118.074219 429.109375 120.128906 428.769531 122.199219 C 428.449219 124.222656 427.789062 126.542969 428.097656 128.597656 C 427.039062 130.386719 426.847656 132.75 427.257812 134.851562 C 427.847656 137.828125 429.753906 140.601562 432.367188 142.171875 C 438.003906 145.535156 445.191406 143.246094 448.363281 137.683594 C 449.800781 135.15625 450.609375 132.339844 451.3125 129.539062 C 452.148438 126.160156 452.941406 122.773438 453.707031 119.367188 C 454.277344 116.769531 454.804688 114.171875 455.320312 111.558594 C 459.136719 111.324219 462.949219 111.074219 466.765625 110.824219 L 477.113281 110.164062 C 480.636719 109.945312 484.363281 110.105469 487.664062 108.828125 C 487.839844 108.757812 488.015625 108.683594 488.179688 108.59375 C 486.433594 112.984375 485.023438 117.519531 483.863281 122.082031 C 482.351562 128.070312 480.753906 134.027344 479.328125 140.046875 C 476.496094 152.078125 473.679688 164.097656 470.859375 176.132812 C 465.226562 200.199219 459.707031 224.296875 454.191406 248.382812 C 452.664062 255.042969 451.136719 261.691406 449.609375 268.355469 C 448.832031 271.730469 448.054688 275.121094 447.292969 278.496094 C 446.867188 280.332031 446.398438 282.164062 446.308594 284.058594 C 446.265625 284.96875 446.484375 285.863281 446.5 286.757812 C 446.515625 287.625 446.410156 288.492188 446.292969 289.339844 C 446.089844 290.824219 446.660156 292.335938 448.230469 292.761719 C 449.742188 293.171875 451.195312 292.246094 451.652344 290.824219 C 452.121094 289.371094 452.648438 288.226562 453.441406 286.949219 C 454.367188 285.480469 454.792969 283.691406 455.171875 282.019531 C 455.847656 279.054688 456.539062 276.105469 457.210938 273.140625 C 458.59375 267.121094 459.988281 261.089844 461.367188 255.074219 C 464.140625 243.023438 466.914062 230.992188 469.6875 218.941406 C 475.234375 194.84375 480.648438 170.730469 486.035156 146.605469 C 487.53125 139.925781 488.914062 133.234375 490.277344 126.542969 C 491.6875 119.660156 492.933594 112.628906 493.09375 105.601562 C 493.140625 103.929688 490.554688 103.078125 489.792969 104.691406 Z M 196.308594 216.945312 L 193.78125 221.820312 C 191.992188 225.253906 190.261719 228.714844 188.558594 232.195312 C 186.898438 235.585938 185.300781 239.003906 183.746094 242.4375 C 182.996094 244.097656 182.261719 245.769531 181.542969 247.457031 C 178.636719 244.273438 175.570312 241.21875 172.722656 237.976562 C 169.566406 234.351562 166.53125 230.625 163.667969 226.765625 C 157.738281 218.75 152.324219 210.371094 147.449219 201.667969 C 146.058594 199.175781 144.691406 196.679688 143.253906 194.214844 C 142.183594 192.378906 141.183594 190.5 139.894531 188.828125 C 140.523438 187.875 141.199219 186.949219 141.875 186.039062 C 141.933594 185.964844 141.992188 185.890625 142.019531 185.847656 C 142.210938 185.613281 142.402344 185.363281 142.59375 185.128906 C 142.960938 184.675781 143.328125 184.234375 143.695312 183.792969 C 144.488281 182.871094 145.308594 181.972656 146.128906 181.078125 C 147.464844 179.640625 148.859375 178.277344 150.285156 176.925781 C 150.546875 178.554688 152.160156 179.917969 153.730469 180.109375 C 154.9375 180.257812 156.140625 179.875 156.992188 179.082031 C 158.898438 181.8125 161.171875 184.351562 163.332031 186.800781 C 166.484375 190.382812 169.832031 193.800781 173.25 197.148438 C 176.671875 200.480469 180.164062 203.738281 183.757812 206.894531 C 185.519531 208.433594 187.296875 209.960938 189.085938 211.457031 C 191.375 213.367188 193.8125 216.066406 197.054688 215.273438 C 197.128906 215.257812 197.1875 215.230469 197.246094 215.199219 C 196.9375 215.773438 196.628906 216.359375 196.308594 216.976562 Z M 444.605469 125.957031 C 444.078125 128.085938 443.621094 130.417969 442.714844 132.398438 C 441.964844 134.027344 440.863281 135.261719 439.351562 135.554688 C 438.179688 135.773438 436.59375 135.039062 435.976562 134.042969 C 435.625 133.46875 435.535156 132.75 435.507812 132.046875 C 435.476562 131.519531 435.449219 130.960938 435.40625 130.417969 C 435.449219 130.34375 435.507812 130.285156 435.550781 130.210938 C 436.679688 128.464844 436.679688 126.074219 436.988281 124.0625 C 437.296875 122.097656 437.621094 120.144531 437.957031 118.191406 C 438.296875 116.269531 438.648438 114.347656 439 112.425781 C 441.566406 112.292969 444.152344 112.148438 446.71875 112 C 447.101562 111.984375 447.484375 111.957031 447.863281 111.925781 C 446.824219 116.609375 445.765625 121.304688 444.605469 125.957031 Z M 453.382812 82.914062 C 452.824219 85.804688 452.414062 88.722656 451.898438 91.628906 C 451.167969 95.84375 450.375 100.023438 449.507812 104.207031 C 448.464844 104.28125 447.4375 104.339844 446.398438 104.414062 C 444.414062 104.542969 442.449219 104.707031 440.46875 104.851562 C 441.171875 101.390625 441.90625 97.925781 442.640625 94.476562 C 443.050781 92.539062 443.503906 90.601562 443.902344 88.652344 C 444.3125 86.609375 445.074219 84.117188 444.414062 82.089844 C 443.726562 79.992188 441.332031 79.449219 439.703125 80.84375 C 438.105469 82.222656 437.503906 84.761719 436.84375 86.699219 C 436.210938 88.578125 435.683594 90.5 435.140625 92.40625 C 434.023438 96.324219 433.070312 100.289062 432.160156 104.25 C 432.058594 104.675781 431.984375 105.101562 431.898438 105.511719 C 429.945312 105.675781 427.980469 105.820312 426.027344 105.996094 C 425.484375 106.042969 424.957031 106.113281 424.414062 106.171875 C 424.765625 104.574219 425.101562 102.960938 425.441406 101.34375 C 426.511719 96.179688 427.582031 91.011719 428.667969 85.847656 C 429.195312 83.324219 429.726562 80.785156 430.253906 78.261719 C 430.53125 76.894531 431.132812 75.179688 431.222656 73.59375 C 431.601562 73.210938 431.96875 72.832031 432.308594 72.523438 C 433.277344 71.625 434.304688 70.9375 435.476562 70.351562 C 437.898438 69.132812 440.542969 68.5 443.09375 68.824219 C 445.382812 69.101562 447.980469 70.46875 449.625 71.921875 C 450.710938 72.875 451.429688 73.695312 452.089844 74.753906 C 452.972656 76.132812 453.234375 77.363281 454.335938 78.449219 C 453.894531 79.949219 453.632812 81.53125 453.367188 82.914062 Z M 453.382812 82.914062 " fill-opacity="1" fill-rule="nonzero"/><path fill="#191515" d="M 769.511719 125.371094 C 769.484375 125.003906 769.367188 124.664062 769.191406 124.355469 C 769.117188 123.785156 768.925781 123.226562 768.601562 122.683594 C 767.5625 120.953125 765.625 120.410156 763.746094 120.203125 C 760.972656 119.910156 758.152344 119.777344 755.367188 119.601562 C 744.84375 118.925781 734.292969 118.457031 723.738281 118.414062 C 717.722656 118.382812 711.660156 118.308594 705.660156 118.648438 C 702.636719 118.824219 699.628906 119.058594 696.617188 119.410156 C 695.328125 119.558594 693.960938 119.660156 692.613281 119.851562 C 692.082031 117.855469 691.4375 115.890625 690.660156 113.964844 C 690.074219 112.511719 689.457031 111.015625 688.605469 109.695312 C 688.09375 108.917969 687.679688 108.050781 687.050781 107.363281 C 686.699219 106.980469 686.300781 106.628906 685.921875 106.261719 C 685.964844 104.324219 684.761719 102.359375 682.28125 102.371094 C 679.273438 102.402344 676.277344 102.417969 673.269531 102.429688 C 674.386719 101.214844 674.679688 99.554688 675.058594 97.792969 C 675.484375 95.828125 675.894531 93.859375 676.277344 91.878906 C 677.085938 87.828125 677.773438 83.75 678.449219 79.667969 C 679.125 75.574219 679.769531 71.464844 680.300781 67.339844 C 680.546875 65.359375 680.84375 63.363281 681.03125 61.367188 C 681.210938 59.445312 681.414062 56.746094 680.195312 55.117188 C 679.859375 54.660156 679.449219 54.339844 679.035156 54.164062 C 677.644531 52.417969 675.925781 52.078125 673.679688 52.078125 C 672.167969 52.078125 670.65625 52.09375 669.144531 52.109375 C 666.121094 52.121094 663.085938 52.136719 660.0625 52.152344 C 653.675781 52.179688 647.308594 52.179688 640.925781 52.253906 C 634.65625 52.328125 628.375 52.359375 622.109375 52.578125 C 618.984375 52.695312 615.8125 52.78125 612.703125 53.105469 C 611.265625 53.253906 609.871094 53.445312 608.460938 53.738281 C 607.769531 51.902344 606.964844 50.113281 605.953125 48.4375 C 605.335938 47.425781 604.628906 46.253906 603.808594 45.402344 C 603.675781 45.226562 603.515625 45.078125 603.308594 44.960938 C 602.8125 44.59375 602.824219 44.578125 603.367188 44.960938 C 603.398438 44.886719 602.898438 44.375 602.839844 44.300781 C 602.472656 43.859375 602.105469 43.507812 601.667969 43.214844 C 601.550781 43.113281 601.417969 43.007812 601.300781 42.90625 C 601.109375 41.878906 600.492188 40.953125 599.480469 40.351562 C 597.761719 39.324219 595.972656 39.558594 594.109375 39.75 C 587.679688 40.441406 581.222656 40.808594 574.75 40.953125 C 571.257812 41.042969 567.765625 41.027344 564.273438 41.070312 C 562.480469 41.101562 560.675781 41.101562 558.886719 41.175781 C 556.980469 41.261719 555.042969 41.128906 553.355469 42.144531 C 552.53125 42.628906 552.121094 43.683594 552.339844 44.59375 C 551.019531 47.515625 550.476562 51.007812 549.714844 54 C 548.714844 57.859375 547.820312 61.75 546.96875 65.640625 C 545.265625 73.445312 543.710938 81.285156 542.140625 89.105469 C 539.03125 104.558594 535.832031 120 532.835938 135.480469 C 532.074219 139.398438 531.3125 143.332031 530.546875 147.25 L 529.433594 152.976562 C 528.960938 155.410156 528.125 158.230469 529.988281 160.296875 C 530.238281 160.578125 530.503906 160.796875 530.78125 160.972656 C 530.269531 161.914062 530.648438 163.320312 531.824219 163.671875 C 538.148438 165.476562 545.121094 165.375 551.664062 165.492188 C 558.328125 165.609375 565.007812 165.476562 571.667969 165.273438 C 584.996094 164.875 598.304688 163.894531 611.558594 162.457031 C 613.597656 162.234375 615.34375 160.871094 615.34375 158.667969 C 615.34375 156.789062 613.597656 154.664062 611.558594 154.882812 C 598.289062 156.320312 584.996094 157.332031 571.667969 158.023438 C 565.007812 158.359375 558.34375 158.535156 551.664062 158.757812 C 546.53125 158.917969 541.21875 158.816406 536.066406 159.460938 C 536.886719 158.109375 537.136719 156.363281 537.429688 154.839844 C 538.207031 150.800781 539 146.78125 539.777344 142.746094 C 542.785156 127.261719 545.632812 111.734375 548.539062 96.222656 C 550.167969 87.507812 551.871094 78.804688 553.367188 70.070312 C 554.144531 65.523438 554.953125 60.957031 555.539062 56.394531 C 555.804688 54.265625 556.128906 52.152344 556.375 50.023438 C 556.480469 49.113281 556.597656 48.21875 556.671875 47.324219 C 558.476562 47.765625 560.414062 47.910156 562.085938 48.132812 C 565.242188 48.542969 568.425781 48.804688 571.609375 48.910156 C 578.066406 49.113281 584.523438 48.953125 590.96875 48.453125 C 592.800781 48.308594 595.179688 48.367188 597.234375 47.851562 C 597.367188 48.101562 597.5 48.335938 597.628906 48.585938 C 597.734375 48.777344 597.820312 48.96875 597.925781 49.160156 C 597.277344 47.96875 598.070312 49.597656 598.246094 49.964844 C 598.644531 50.800781 599.023438 51.636719 599.390625 52.488281 C 599.964844 53.914062 600.523438 55.335938 600.976562 56.804688 C 601.609375 58.84375 603.851562 60.339844 605.996094 59.652344 C 606.363281 59.535156 606.714844 59.34375 607.050781 59.125 C 607.449219 59.183594 607.832031 59.242188 608.195312 59.3125 C 609.707031 59.59375 611.191406 59.828125 612.730469 59.972656 C 615.742188 60.269531 618.792969 60.339844 621.816406 60.429688 C 628.199219 60.605469 634.570312 60.589844 640.953125 60.605469 C 647.21875 60.621094 653.5 60.574219 659.769531 60.5625 C 662.910156 60.5625 666.035156 60.546875 669.175781 60.53125 C 670.671875 60.53125 672.359375 60.679688 673.960938 60.589844 C 673.621094 62.394531 673.328125 64.199219 673.003906 66.007812 C 672.300781 69.953125 671.625 73.917969 670.863281 77.863281 C 670.128906 81.710938 669.320312 85.539062 668.527344 89.371094 C 668.117188 91.335938 667.722656 93.304688 667.296875 95.269531 C 666.78125 97.675781 665.859375 100.128906 667.515625 102.3125 C 667.546875 102.359375 667.589844 102.386719 667.621094 102.429688 C 663.90625 102.460938 660.195312 102.488281 656.480469 102.503906 C 648.703125 102.546875 640.484375 102.226562 632.851562 104.058594 C 631.988281 103.152344 630.238281 103.371094 629.507812 104.457031 C 627.011719 108.183594 626.394531 112.984375 625.382812 117.296875 C 624.398438 121.496094 623.519531 125.738281 622.59375 129.949219 C 620.6875 138.59375 618.910156 147.28125 617.089844 155.9375 C 613.496094 173.066406 609.945312 190.207031 606.40625 207.347656 C 605.394531 212.222656 604.394531 217.078125 603.382812 221.949219 C 602.898438 224.285156 602.414062 226.601562 601.945312 228.9375 C 601.386719 231.621094 600.300781 234.5 601.34375 237.140625 C 601.679688 237.992188 602.296875 238.667969 603.046875 239.046875 C 603.222656 239.386719 603.472656 239.695312 603.839844 239.929688 C 605.746094 241.132812 607.902344 241.382812 610.121094 241.601562 C 612.292969 241.820312 614.449219 241.96875 616.621094 242.085938 C 620.949219 242.320312 625.292969 242.351562 629.625 242.363281 C 638.296875 242.394531 646.96875 242.421875 655.644531 242.453125 C 672.769531 242.511719 689.898438 242.46875 707.039062 242.453125 C 711.808594 242.453125 716.578125 242.453125 721.347656 242.453125 C 726.308594 242.453125 731.355469 242.6875 736.300781 242.351562 C 736.949219 242.304688 737.519531 242.144531 738.003906 241.925781 C 739.003906 242.421875 740.175781 242.410156 741.363281 241.808594 C 743.699219 240.632812 744.183594 237.890625 744.871094 235.585938 C 746.015625 231.738281 747.132812 227.878906 748.234375 224.003906 C 752.578125 208.757812 756.597656 193.40625 760.179688 177.953125 C 762.160156 169.410156 764.113281 160.839844 765.785156 152.226562 C 766.636719 147.851562 767.445312 143.480469 768.132812 139.089844 C 768.851562 134.585938 769.878906 129.917969 769.527344 125.339844 Z M 761.398438 135.628906 C 760.472656 139.53125 759.5625 143.433594 758.667969 147.355469 C 756.9375 154.984375 755.261719 162.617188 753.457031 170.234375 C 749.804688 185.65625 745.886719 201.039062 741.660156 216.316406 C 740.585938 220.191406 739.488281 224.050781 738.371094 227.910156 C 737.84375 229.742188 737.316406 231.5625 736.773438 233.382812 C 736.710938 233.558594 736.652344 233.75 736.59375 233.941406 C 736.492188 233.941406 736.390625 233.898438 736.273438 233.882812 C 731.957031 233.589844 727.585938 233.78125 723.269531 233.78125 C 718.941406 233.78125 714.597656 233.78125 710.265625 233.78125 C 701.59375 233.78125 692.921875 233.78125 684.246094 233.78125 C 667.121094 233.78125 649.992188 233.824219 632.851562 233.867188 C 628.082031 233.882812 623.3125 233.910156 618.542969 234.058594 C 616.167969 234.132812 613.757812 234.265625 611.382812 234.5 C 610.457031 234.585938 609.53125 234.675781 608.609375 234.792969 C 608.785156 233.96875 608.945312 233.117188 609.105469 232.296875 C 609.589844 229.964844 610.0625 227.644531 610.546875 225.3125 C 611.410156 221.070312 612.277344 216.84375 613.15625 212.601562 C 614.933594 203.929688 616.722656 195.242188 618.5 186.566406 C 622.066406 169.207031 625.691406 151.84375 629.035156 134.453125 C 629.976562 129.566406 630.960938 124.695312 631.855469 119.792969 C 632.53125 116.09375 633.542969 112.191406 633.558594 108.375 C 640.984375 110.019531 648.9375 109.695312 656.449219 109.738281 C 664.375 109.785156 672.316406 109.84375 680.242188 109.902344 C 680.300781 110.328125 680.417969 110.941406 680.476562 111.164062 C 680.621094 111.734375 680.914062 112.277344 681.078125 112.851562 C 681.445312 114.097656 681.898438 115.332031 682.324219 116.550781 C 683.175781 119.03125 683.835938 121.570312 684.335938 124.152344 C 684.789062 126.484375 687.695312 128.027344 689.898438 127.308594 C 690.558594 127.085938 691.128906 126.765625 691.601562 126.339844 C 692.816406 126.46875 694.066406 126.515625 695.3125 126.585938 C 698.101562 126.761719 700.902344 126.894531 703.707031 126.953125 C 709.09375 127.058594 714.480469 127.011719 719.851562 127.101562 C 730.402344 127.261719 740.953125 127.601562 751.476562 128.246094 C 754.058594 128.40625 756.628906 128.570312 759.210938 128.757812 C 760.371094 128.847656 761.707031 129.039062 763.011719 129.097656 C 762.378906 131.238281 761.898438 133.425781 761.382812 135.613281 Z M 761.398438 135.628906 " fill-opacity="1" fill-rule="nonzero"/><path fill="#191515" d="M 255.390625 22.757812 C 261.511719 30.929688 252.117188 82.796875 230.074219 81.5625 C 208.019531 80.34375 219.054688 48.894531 219.054688 48.894531 L 223.132812 48.070312 C 223.132812 48.070312 214.167969 116.34375 150.445312 84.453125 C 150.445312 84.453125 141.039062 79.523438 139.820312 79.113281 C 138.601562 78.699219 123.898438 85.640625 123.898438 85.640625 C 123.898438 85.640625 113.269531 46.839844 150.035156 27.246094 C 150.035156 27.246094 163.917969 2.738281 205.976562 1.519531 C 248.039062 0.300781 255.390625 22.757812 255.390625 22.757812 Z M 255.390625 22.757812 " fill-opacity="1" fill-rule="nonzero"/><path fill="#191515" d="M 250.902344 25.207031 C 250.902344 25.207031 270.476562 17.898438 283.980469 36.640625 C 298.683594 57.054688 281.941406 86.054688 282.351562 84.835938 C 282.761719 83.617188 281.132812 44.402344 253.351562 32.148438 Z M 250.902344 25.207031 " fill-opacity="1" fill-rule="nonzero"/></svg>